<?xml version="1.0" standalone="yes"?>
<svg xmlns="http://www.w3.org/2000/svg" width="200" height="200">
<path style="fill:#ffffff; stroke:none;" d="M0 0L0 200L200 200L200 0L0 0z"/>
<path style="fill:#43b129; stroke:none;" d="M6 3L8 5L6 8L9 8L6 12L14 10C14.9833 12.9498 15.4869 13.6217 13 13L15 15L15 16L13 18L12 12L6 14L6 18L10 16L17 23L16 20L21 25L18 26C15.3218 24.4832 11.9466 20.5901 11 25L14 28L13 28L9 27L6 21L8 38L6 49L9 50L10 46L11 46L9 53L8 53L7 50L6 50L6 57L7 57L8 55L9 58L6 59L6 62L7 62L8 62L7 59L10 58L10 60L13 59L11 61L10 61L10 65L6 64L6 65L8 68L9 68L12 66L14 72L11 70L10 73L9 73L7 66L6 66L7 76L14 75L11 74L10 78L14 76L13 80L9 80L6 78L6 79L8 84L6 83L9 89L6 91L8 93L6 96L8 98L12 96L7 99L7 100L18 99L17 102L13 101L15 103L15 104L13 106L12 101L6 102L6 106L10 104L17 111L16 108L21 113L18 112L18 113L20 113L20 114L14 113L11 110L11 114L12 114L13 112L14 116L9 115L6 109L6 119C9.02408 119 7.62864 120.673 6 122L6 123L8 125L6 124L8 126L6 136L8 139L6 138L6 139L6 145L9 145L6 147L6 150L7 150L8 147L13 147L11 149L10 149L10 153L6 152L6 153L8 156L9 156L12 154L14 160L11 158L10 161L9 161L7 154L6 154L8 165L8 162C14.8289 161.207 15.0825 166.68 11 171L13 168L6 166L6 167L8 172L6 171L6 172L9 177L6 179L8 181L6 180L6 181L8 183L8 184L6 191L9 196L7 193L6 193L8 199L11 196L11 195L10 189L11 189L10 194L14 195L13 197C17.0711 198.19 21.3685 199.631 25 197L29 199L29 196L34 199L34 184L33 184L32 186L31 182L30 182L28 184L30 181L30 180L28 179L28 178L30 176L23 178L23 177L27 176L26 173L23 174L24 171L28 173L29 173L32 170L32 163L26 163L26 162L37 163L37 154L43 153L40 153L40 150L42 148L43 148L47 155L44 154L47 156L44 167L43 167L44 157L43 157L42 166L37 164L34 176L31 174L31 173L33 172L30 171L34 180L33 180L32 176L31 176L32 183L35 182L35 184L38 183L36 185L36 192L37 192L39 184L42 188L40 188L42 192L39 191L40 194L43 193L43 196L46 194L47 197L42 198L42 199L51 197L52 197L53 199L54 198L52 195L56 196L55 198L58 199L58 195L55 192L56 192L65 194L62 190L59 191L60 182L61 182C61.2896 185.084 60.4654 188.018 64 188L62 186L66 183L67 186L73 184L65 186L72 189L71 192L73 196L72 196L70 189L64 190L64 191L67 191L66 196L59 198L65 199L66 196C68.511 198.169 69.2272 197.701 71 195C72.3969 197.3 73.7613 199.324 76 197L73 198L76 196L78 194L78 199L82 199L82 191L81 191L81 194L78 194L79 191L76 188L79 189L87 188L87 189L83 189L89 193C89.1312 196.299 89.7402 197.4 93 198L90 197L90 196L92 194C87.8399 194 89.9589 189.778 92 188L91 192L98 196L97 199L100 199L98 194L100 193L105 195L104 197C108.071 198.19 112.369 199.631 116 197L120 199L123 196L126 198L122 179L123 179L123 183L126 182L126 184L129 183L127 185L127 192L128 192L130 184L133 188L131 188L133 192L130 191L131 194L134 193L134 196L137 194L138 197L133 198L133 199L142 199L143 195L147 196L145 199L148 197L148 196L146 193L156 194L153 190L150 191L151 182L152 182C152.29 185.084 151.465 188.018 155 188L153 186L157 183L158 186L164 184L156 186L163 189L162 192L164 196L163 196L161 189L155 190L155 191L158 191L157 196L150 198L156 199L157 196C159.511 198.169 160.227 197.701 162 195C163.397 197.3 164.761 199.324 167 197L164 198L167 196L169 194L169 199L171 195L172 195L172 199L173 199L173 191L172 191L172 194L169 194L170 191L167 188L170 189L178 188L178 189L174 189L180 193C180.131 196.299 180.74 197.4 184 198L181 197L181 196L183 194C178.84 194 180.959 189.778 183 188L182 192L187 196L187 192L182 184L185 182L188 185L193 182L191 187C194.017 184.951 194.387 183.352 193 180L195 181L195 180L194 176L192 177L192 176L195 168L195 167L192 168L191 167L192 164L191 164L190 167L189 167L186 160L185 160L184 164L183 164L182 161L184 162L184 158L180 155L179 163L177 159L178 165L173 163L174 160L173 160L172 160L172 164L167 164L168 160L162 155L169 156L169 162L170 162L171 157L172 157L172 159L173 159L174 155L177 156L177 155L172 154L171 157L166 157L167 153L170 154L187 151L187 154L186 155L184 154L185 157L187 154L188 154L188 163L193 161L193 166L194 166C194.756 161.749 196.041 156.594 192 154L193 150L193 149L189 150L190 147L194 151L195 151L195 146L192 147L188 142L187 146L183 142L186 144L195 138C188.285 139.532 185.76 137.116 183 131L186 132L180 128L182 137L182 146L178 144L173 141L176 142L170 138L167 142L168 140L165 142L164 141L170 137L170 136L166 134L166 133L170 134L171 134L174 131C173.334 135.754 175.402 137.472 180 138L179 143L180 143L180 140L183 138L180 138L181 133L177 133L177 132C179.246 130.625 178.078 129.892 176 129C176 131.436 175.214 130.615 173 130L173 128L176 126L173 126L173 121L177 127L180 121L181 121L183 123L181 126L182 127L185 125L184 128L188 128L187 131L191 130L192 133L191 134C188.016 132.781 186.384 132.554 186 136L187 134L188 134L190 135L189 138L190 138L191 135L195 137L195 131L193 131L193 130L195 130L192 127L192 126C193.937 125.071 194.971 124.335 193 123L195 120L192 119L194 113L192 113L192 118L189 117L189 123L187 125L186 125L184 124L184 122L187 119L181 121L184 119L182 116L185 117L185 115L188 116L190 110L191 110L192 112L192 110L195 112L193 109L195 99L193 101L192 101L191 96L194 98L195 98L193 92L195 93L195 92L194 88L192 89L195 86L195 79L191 79L192 76L190 79L189 79L186 72L185 72L184 76L183 76L182 73L184 74L184 70L180 67L179 75L177 71L178 76L177 78L175 75L174 75L178 81L179 81L184 78L182 79L182 80L185 86L191 89L190 92L189 92L188 89L187 89L188 93L184 92L185 94L184 94L181 90L184 90L184 89L181 89C183.123 85.8405 184.641 83.3852 181 81L179 87L180 82L173 85L174 83L173 83L172 83L173 86L170 88L168 87L167 82L171 83L167 76L168 72L162 67L169 68L169 74L170 74L171 69L172 69L172 71L173 71L174 67L177 68L177 67L172 66L171 69L166 69L167 65L170 66L187 63L187 66L186 67L184 66L185 69L187 66L188 66L188 75L193 73L195 77L192 66L193 63L189 60L193 60L192 62L195 63L195 58L192 59L187 53L195 52L195 51C188.419 50.201 185.87 49.3591 183 43L186 44L181 41L182 49C185.341 49 183.726 51.5938 182 53L183 50L180 50L181 44L177 45L179 47L178 50L180 50L176 56L181 52L182 58L172 52L176 54C175.487 51.5249 175.396 51.4254 173 52C167.695 45.9285 148.041 51.9143 140 50L140 49L162 48L162 47L145 49L144 46L148 44L164 46L164 45L150 45L150 44L166 44L166 42L152 42L152 41L168 41L168 40L153 40L153 39L170 39L170 37L155 37L155 36L158.472 29.9468L177 29L177 28L156 26L155 28L154 28L153 32L154 38L153 38L153 35L152 35L149 40L152 33L143 34L144 38L142 39L139 38C139.228 40.5716 138.279 44.8494 136 41L139 41L134 33L134 36L135 36L137 33L137 32L133 25L132 25L133 28L130 27L130 22L135 26L137 25L139 28L139 29L136 30L139 31L139 37L142 36L147 29L149 29L152 32L153 30L157 23L158 26C167.87 25.6764 176.893 30.26 184 21L168 21L168 20L185 20L185 19L165 21L169 16L168 18L169 18L187 18L187 17L170 17L169 12L171 13L169 11L173 6C171.393 3.13112 167.171 -1.43718 166 4L170 5L170 6L169 8L168 8L167 5L166 5L167 8L166 8L165 3L164 3L164 6L161 5L163 1L161 3L157 3L160 3L158 7L156 3L155 3L153 6L152 2L156 2L156 1L148 1C146.974 3.82755 143.959 6.19598 148 7L148 8L143 5L146 4L147 2L147 1L143 1L144 4L141 8L140 8C139.533 5.66295 139.275 2.31886 142 3L142 2L135 1L135 7L134 7L134 2C130.512 2.12457 123.83 -1.49164 122 3L121 3L106 1L105 1L106 9L101 9L104 8L104 1L94 1L98 6L90 5L92 4L92 3L89 8L87 11L91 10L91 6L92 10L97 9L100 7L98 12L105 10C105.983 12.9498 106.487 13.6217 104 13L106 15L106 16L104 18L103 12L96 13L96 10L93 11L95 15L98 14L98 17L101 16L100 19L96 17L91 22L92 24L91 24L80 21L80 25L87 23L90 26L87 29L89 32L86 31L86 32L88 32L88 33L83 27L84 27L84 30L86 25C81.0426 25.9927 74.7278 25.2787 72 30L73 30L79 27L80 30L77 30L77 32L68 33L71 30L69 28L72 25L76 20L75 20L73 22L76 16L79 17L79 14L78 14L73 16L74 3L73 3L73 6L70 5L72 1L70 3L66 3L69 3L67 7L65 3L64 3L62 6L61 2L65 2L65 1L52 1L53 4L50 8L49 8C48.5326 5.66295 48.2754 2.31886 51 3L51 2L44 1L44 7L43 7L43 2L31 1L32 7L25 8L26 4L29 6L30 2L30 1L15 1L14 1L15 9L10 9L13 8L13 1L6 3z"/>
<path style="fill:#43b12b; stroke:none;" d="M13 1L10 9L15 9L13 1M15.3333 1.66667L15.6667 2.33333L15.3333 1.66667M19 1L20 2L19 1M21 1L22 2L21 1M23 1L23 2L26 2L23 1M28 2L29 6L26 4L25 8L32 7L31 1L28 2M41 3L43 7L44 7L45 2L41 3M47 1L48 2L47 1M50 1L51 3L49 8L50 8L53 4L50 1M58 1L59 2L58 1M60 1L61 2L60 1M61 2L62 6L64 3L65 3L67 7L69 3L66 1L61 2M69 1L69 3L71 1L69 1M72 1L70 5C72.5401 5.52295 72.6855 5.59468 73 3L74 3L73 16L79 14L79 17L76 16L73 22L75 20L76 20L72 25L69 28L71 30L68 33L77 32L77 30L80 30L79 27L73 30L72 30L86 25L84 30L84 27L83 27C83.4297 30.7406 84.1863 32.3387 88 33L88 32L86 32L86 31L89 32L87 29L90 26L87 23L80 25L80 21L92 24L91 22L96 17C98.6597 18.1219 99.3336 18.3937 101 16L98 17L98 14L95 15L93 11L96 10L96 13L103 12L104 18L106 16L106 15L104 15L104 13C106.294 13.031 105.716 12.168 105 10L98 12L100 7L97 9L92 10L91 6L91 10L87 11L89 8L92 3L92 4L90 5L98 6L88 1L87 6L86 6L86 1L84 4L83 4L81 3L78 1L78 2L82 6L78 8L75 1L72 1z"/>
<path style="fill:#43b129; stroke:none;" d="M75 1L78 8L82 6L75 1M81 3L83 4L84 4L82 1L81 3M86 1L85 2L86 6L87 6L88 1L86 1M89.6667 1.33333L90.3333 1.66667L89.6667 1.33333M92 1L93 2L92 1z"/>
<path style="fill:#43b12b; stroke:none;" d="M95 1L96 2L95 1M104 1L101 9L106 9L104 1M106.333 1.66667L106.667 2.33333L106.333 1.66667M110 1L111 2L110 1M112 1L113 2L112 1M114 1L114 2L117 2L114 1M121.333 1.66667L121.667 2.33333L121.333 1.66667M132 3L134 7L135 7L136 2L132 3M138 1L139 2L138 1M141 1L142 3L140 8L141 8L144 4L141 1M147 1L146 4L143 5L148 8L148 7L145 7L147 1M149 1L150 2L149 1M151 1L152 2L151 1M152 2L153 6L155 3L156 3L158 7L160 3L157 1L152 2M160 1L160 3L162 1L160 1M163 1L161 5C163.54 5.52295 163.685 5.5947 164 3L165 3L166 8L167 8L166 5L167 5L168 8L169 8L170 6L170 5L166 4L163 1M169 1L169 2L173 6C169.983 8.04912 169.613 9.64772 171 13L169 12L169 13L170 17L187 17L187 18L168 18L169 16L165 21L185 19L185 20L168 20L168 21L184 21C174.667 29.7322 168.695 24.142 158 26L157 23L153 30L151 30L152 32L149 29L147 29L139 37C140.125 33.4848 139.07 31.8843 136 30L139 29L139 28L137 25L135 26L130 22C130.107 25.1252 129.573 27.4532 133 28L132 25L133 25L137 32L137 33L135 36L134 36L134 33C132.107 36.956 135.957 38.8908 139 41L136 41L139 44L139 38L142 39L144 38L143 34L152 33L149 40L152 35L153 35L153 38L154 38L153 32L154 28L155 28L156 30L156 26L177 28L177 29C166.366 29 160.151 26.2991 155 36L155 37L170 37L170 39L153 39L153 40L168 40L168 41L152 41L152 42L166 42L166 44L150 44L150 45L164 45L164 46L148 44L144 46L145 49L162 47L162 48L140 49L140 50C149.747 52.881 164.933 45.8881 173 52L176 54L172 52L182 58L181 52L180 55L176 56L180 50L178 50L177 45L181 44L180 50L181 51L183 50L182 53C183.841 51.6617 184.69 49.4324 182 49L181 41L186 44L183 43C185.21 49.9591 188.287 50.5309 195 51L192 49L195 46L195 43L195 42L191 44L192 39L194 41L195 41L195 36L194 36L192 38L192 34L189 35L192 30L193 30L195 32L194 10L174 9L175 6L195 8L195 7C189.11 7 177.258 9.4243 177 1L175 4L174 4L172 3L169 1z"/>
<path style="fill:#43b129; stroke:none;" d="M172 3L174 4L175 4L173 1L172 3M176 2C179.092 9.28487 188.276 7 195 7L195 6L178 5L180 2L176 2z"/>
<path style="fill:#43b12b; stroke:none;" d="M179 1L178 5L195 6L195 1L179 1M7 2L8 5L7 2M9 2L8 6L10 5L9 8L12 7L11 2L9 2M17 2L16 6L20 7L19 2L17 2M33 2L34 3L33 2M35 2L35 5C37.9934 4.93576 39.3456 5.05392 40 2L35 2M54 2L52 5L52 6L59 6L59 7L53 10L50 12L52 11L52 12L50 18L51 18L55 14L54 19L54 20L49 22L51 19C46.9565 19 49.2089 15.4525 50 13L47 15L47 5L45 5L43 11C46.5024 10.2995 46.9967 14.7492 44 14L45 19L43 12L40 13L42 11L42 7L35 11L35 12L38 12L38 13L33 10L38 7L36 9L27 9L29 12L27 15L26 15L26 11L23 12L25 9L22 3L21 3L19 11L19 12L22 12L22 13L18 15L19 8L15 7L15 18L20 21L21 20L19 17L20 16C22.7396 20.1364 25.1307 24.6201 22 29L23 25L22 25L21 25L18 29L17 26L16 26L14 28L14 31L18 29L15 33L14 33L11 31L11 32L14 33L17 36L12 42L15 39L16 39L15 43L18 41L18 45L19 45L20 42L23 43L19 38L21 41C16.1655 40.3957 18.8836 36.4812 21 34L25 35L24 38L30 41L23 39L23 40L26 41L24 43L24 44L27 46L27 43L30 44L22 46L21 46L20 50L19 50L20 46L10 44L12 37L11 37L11 40L8 39L8 46C13.1069 42.8082 18.9225 50 13 50L15 47L10 52L13 50L12 54L9 54L11 58L14 57L19 64L14 61C11.7854 69.3864 17.4322 68.1884 22 64L24 69L20 67L21 75L18 74L17 81L21 81L20 85L20 84L17 89L20 88L18 93L19 90L16 91L16 88L12 86L17 83L12 83L14 80L8 84L8 85L8 86L11 90L10 95L8 94L8 95C11.6261 96.2455 16.2092 99.5498 19 96L15 97L15 91L16 91L17 95L21 94L19 99L19 100L22 100L22 101L18 103L19 101L18 101L15 106L20 109L21 108L19 105L20 104C21.9594 106.962 24.3359 110.465 21 113L19 116L19 117L24 119L20 121L21 129C17.4388 128.555 17.7268 126.145 20 124L20 123L18 119L20 120L17 114L16 114L14 116L11 119L11 120L14 121L13 124L12 130L15 127L16 127L15 131L18 129L18 133L19 133L20 130L23 131L21 126L22 124L26 120L27 120L27 123L39 125L24 125L40 126L40 138L36 137L36 129L35 129L33 142L32 142L30 135L28 137L32 132L33 135L34 135L34 130L30 131L23 127L23 128L26 129L24 131L24 132L27 134L27 131L30 132L22 134L21 134L20 139L19 139L20 134L10 132L12 124L11 124L11 128L8 127L8 134C13.1661 130.771 19.4137 135.993 12 140L15 135L11 139L10 139L11 134L10 134L8 141L9 141L12 142L9 142L10 146L18 144L19 152C16.8296 150.734 15.4288 150.245 17 148L16 147C10.0516 153.905 15.6994 157.777 22 152L24 157L20 155L21 163L18 162L17 169L21 170L18 170L16 174L15 171L11 173L11 171L8 172L11 178L10 183L8 182L10 185L8 189L15 188L13 185L17 184L16 186L17 186L22 187L20 186L20 187L20 188L29 180L24 184L23 184L23 176C20.0404 176 22.0333 174.041 23 172L20 175L19 175L22 167L18 164L20 166L21 166L21 163L22 163L23 168L30 168L30 164L25 164L27 160L25 160L26 153L23 154L25 151L21 147L25 147L26 148L28 159L35 159C34.3208 156.028 31.9829 153.797 35 152L37 147L36 153L39 152L38 150L45 147L44 145L45 145L47 149L45 148L48 155L50 153L51 153C47.2134 160.973 44.0072 166.743 44 176L37 175L35 181L40 182L37 178L37 177L42 177L41 180L42 180L42 178L43 178L41 181L46 192L45 193L43 192L43 193C47.581 192.793 48.522 190.229 49 186L50 186L51 191L52 188L53 188L52 193L48 193L48 194L51 193L49 197L59 189L58 185L53 185L54 181L58 184L60 180L61 180L62 182L65 180L66 183L69 179L71 179L75 183L71 188L75 189L75 188L73 187L79 184L79 187L90 182L87 183L92 179L87 187L87 188L91 185L92 185L96 192L96 186L98 186L99 189L106 188L104 185L108 184L107 186L108 186L113 187L111 186L111 187L111 188L120 184L121 183L120 180L115 184L114 184L113 177L121 179L122 179C125.589 176.547 126.848 175.582 127 171L128 171L129 178L126 178L126 181L131 182L131 164L130 164L130 171L129 171L127 161L123 157L127 156L126 160L134 164L132 160L139 159L137 162L134 161L135 171L132 171L132 180L133 180L133 178L134 178L132 181L137 192L136 193L134 192L134 193C138.581 192.793 139.522 190.229 140 186L141 186L142 191L143 188L144 188L145 192L150 189L148 182L151 180L152 180L153 182L156 180L157 183L160 179L162 179L166 183L162 188L166 189L166 188L164 187C168.823 186.068 178.678 186.644 181 182L178 183L183 179L182 183L188 179L191 179L189 181L189 182C192.337 181.281 192.386 178 189 178L193 173L191 168L187 169L188 165L185 169L184 167L184 166L178 169L182 163L177 166L177 165L174 166C172.459 163.345 170.457 164.134 170 167L167 162L164 163L160 154L155 154L155 153C157.993 152.936 159.346 153.054 160 150L157 152L157 146C159.916 145.863 161.63 145.983 162 143L167 142L164 143L164 136L162 137L162 136L171 131L173 127L169 128L169 123L172 126L173 120L179 119L178 121L179 121C181.151 117.773 182.048 115.61 179 115L180 111L183 112L181 113L181 114L185 115L185 113L189 113L189 110L189 109L184 113L188 102L184 99L187 100L189 100L191 99L191 98L186 97L188 94L185 94L185 98L184 98L183 94L179 95L181 91L177 94L176 90L174 92L172 91L172 89L176 89L177 85L175 87L169 88L173 96L169 98L170 94L170 93L166 92L168 88L158 88L159 83L164 83L163 85L169 79L167 74L164 75L161 67L159 67L153 74L155 70L131 70L131 69L145 69L145 68L133 68L133 67C137.913 67 145.041 68.564 148 64L135 65L133 60L134 63L131 62L134 65L127 67L127 68L130 67L129 70L114 68L119 75L114 75L112 83L113 75L111 75L111 79L108 81L112 81L111 85L111 84L108 89L111 88L109 93L110 90L107 91L107 88L103 86L108 83L103 83L106 67L130 64L136 59L135 57L136 57L138 60L151 60L151 61L136 60L136 61L150 62L149 64L163 64L166 67C164.67 65.2264 163.824 62.2059 167 63L168 58L169 58L168 64L169 64L169 61L174 64C174.771 61.353 176.481 55.7816 172 58C171.071 50.9808 160.824 49.1023 157 55L170 54C162.211 61.9535 143.402 56.2372 138 49L140 44L142 48L143 48L144 44L136 45L137 49L136 50L134 49L133 52L136 53L132 56L133 53L132 53L131 55L132 46L134 47L134 46L134 43L131 44L128 42L126 46L125 41L127 42L127 41L124 37L128 41L134 42L133 37L129 36L131 31C133.396 31.5746 133.487 31.4751 134 29L129 34L130 26L127 27L128 21L133 19L134 19L139 18L135 22L140 32L145 32L145 31L143 27L143 30L151 29L151 20L148 21L158 18L157 21L153 20L154 24L160 19L161 23L165 22L165 21L161 21L161 20C162.808 19.5246 166.469 18.6759 164 17L164 16L169 15L169 9C165.571 9.40038 165.479 11.7614 165 15L164 12L162 10L161 10L160 14L164 18L161 17L158 15L154 9L155 9L159 14L159 9L158 9L157 11L157 7L150 6L152 3L147 5L147 6L150 6L147 13L146 13L146 9L141 12L143 11L143 12L141 20L141 13L138 15L138 5L136 5L134 11C137.502 10.2995 137.997 14.7492 135 14L136 19L134 12L131 13L133 11L133 7L126 11L126 12L129 12L129 13C124.858 13.1092 122.015 13.0819 120 17L119 17L121 12L118 15L117 15L117 11L114 12L114 8L119 8C118.972 10.4369 119.556 10.3027 122 10C123.417 12.5234 124.483 11.4584 125 9L129 7L127 9L126 9L123 4L124 4L125 7L126 7L124 3C121.477 3.88657 120.392 5.03728 120 2L119 2L116 8L113 3L112 3L110 11L110 12L113 12L113 13L109 15L110 8L106 7L106 18L109 18L107 20L108 23L106 19L96 19L94 25L90 25L90 26L94 29L91 28L92 32L86 36L88 37L88 34L85 36L82 33L82 38L85 38L74 43L71 38L75 36L76 39L74 38L78 39L78 34L81 35L83 31L82 30L80 33C75.274 32.4873 72.0917 32.9936 71 38L70 38L70 33L67 34L69 30L69 29L65 26C68.2791 27.107 70.3684 27.2632 72 24L67 26L66 23L62 28L61 28L60 20L57 21L59 26L59 25L52 25L52 24L67 18L66 21L62 20L63 24L69 19L73 23L73 22L70 21L70 20L75 18L72 16L73 12L71 10L70 10L69 14L73 18L70 17L67 15L63 9L64 9L68 14L68 9L67 9L66 11L66 7L59 6L61 3L56 5L54 2M76 2L77 3L76 2z"/>
<path style="fill:#43b129; stroke:none;" d="M88 2L89 3L88 2z"/>
<path style="fill:#43b12b; stroke:none;" d="M98 2L103 7L102 2L99 4L98 2M108 2L107 6L111 7L110 2L108 2M126 2L126 5C128.993 4.93576 130.346 5.05391 131 2L126 2M178 2L179 3L178 2M24 3L25 4L24 3z"/>
<path style="fill:#43b129; stroke:none;" d="M37 3L38 4L37 3z"/>
<path style="fill:#43b12b; stroke:none;" d="M45 3L46 4L45 3M47 3L48 4L47 3M115 3L116 4L115 3z"/>
<path style="fill:#43b129; stroke:none;" d="M128 3L129 4L128 3z"/>
<path style="fill:#43b12b; stroke:none;" d="M136 3L137 4L136 3M138 3L139 4L138 3M32 4L35 7L32 4M41.3333 4.66667L41.6667 5.33333L41.3333 4.66667M132.333 4.66667L132.667 5.33333L132.333 4.66667z"/>
<path style="fill:#43b129; stroke:none;" d="M75 5L77 7L77 5L75 5M83 5L83 13L80 14L78 25L79 25L80 19L86 18L82 19L86 15L91 18L88 14L87 16L86 15L88 12L85 11C85.8455 7.93434 85.7635 6.68172 83 5M119 5L120 9L124 9L122 5L119 5M174 5L175 6L174 5z"/>
<path style="fill:#43b12b; stroke:none;" d="M68 6L68 7L72 11L73 11L74 7L68 6M89 6L90 7L89 6M159 6L159 7L163 11L164 11L165 7L159 6z"/>
<path style="fill:#43b129; stroke:none;" d="M175 6L174 9L194 10L194 30L195 30L195 8L177 6L175 6z"/>
<path style="fill:#43b12b; stroke:none;" d="M7 7L6 11L9 8L7 7z"/>
<path style="fill:#43b129; stroke:none;" d="M22 7L23 8L22 7z"/>
<path style="fill:#43b12b; stroke:none;" d="M32 7L33 8L32 7z"/>
<path style="fill:#43b129; stroke:none;" d="M45.3333 7.66667L45.6667 8.33333L45.3333 7.66667z"/>
<path style="fill:#43b12b; stroke:none;" d="M51 7L52 8L51 7z"/>
<path style="fill:#43b129; stroke:none;" d="M60 7L59 10L54 8L54 13L57 14L55 19C57.9388 16.0025 57.1509 13.8277 56 10L60 10C59.4308 13.666 59.2229 15.735 63 17L63 8L60 7M71 7L72 8L71 7M113 7L114 8L113 7z"/>
<path style="fill:#43b12b; stroke:none;" d="M120 7L121 8L120 7z"/>
<path style="fill:#43b129; stroke:none;" d="M136.333 7.66667L136.667 8.33333L136.333 7.66667z"/>
<path style="fill:#43b12b; stroke:none;" d="M142 7L143 8L142 7z"/>
<path style="fill:#43b129; stroke:none;" d="M151 7L149 11L154 17L154 8L151 7M162 7L163 8L162 7M77 8L76 13L82 9L78 11L77 8z"/>
<path style="fill:#43b12b; stroke:none;" d="M9 9L8 11L9 9z"/>
<path style="fill:#43b129; stroke:none;" d="M17 9L18 10L17 9z"/>
<path style="fill:#43b12b; stroke:none;" d="M100.333 9.66667L100.667 10.3333L100.333 9.66667z"/>
<path style="fill:#43b129; stroke:none;" d="M108 9L109 10L108 9M172 9L173 12L174 12L172 9z"/>
<path style="fill:#43b12b; stroke:none;" d="M6 14L12 12L13 18L15 16L15 15L13 15L13 13C15.2938 13.031 14.7161 12.168 14 10L6 14z"/>
<path style="fill:#43b129; stroke:none;" d="M30 10L31 11L30 10M32 11L29 12L28 17L21 14L25 28L27 27L27 28C24.0847 29.9435 20.0313 31.8747 21 28L20 28L15 33L15 34L15 35L22 34L22 31L28 31L26 34L24 33L23 33L23 34L30 38L31 34L28 33L29 28L30 28L35 35L35 32L28 27L28 26L31 25L32 30L33 30L33 28L34 28L34 31L35 31L34 25L31 22L30 22L30 24L29 24L28 20L32 24L35 23L36 27L39 26L36 29L36 30L38 34L39 31L40 31L38 36L42 37L43 42L39 39L37 41L33 37L34 40L31 38L30 43L32 42L32 43L28 49L32 48L32 54L33 54L44 54L45 54L48 57C43.3577 57.611 39.8541 59.116 39 64C33.6928 64.4985 32.8603 61.6964 32 57L33 57L35 58L35 64L36 55L35 55L34 57L23 48L26 50L28 55L22 51L21 51L22 56L18 53L18 49L12 54L12 55L22 63L21 60L26 61L24 57L19 60L18 56L15 57L16 53L18 53C19.8059 56.2012 21.4202 56.4026 25 56L26 59L27 59L26 56L28 58L29 58L29 55L30 55L30 66L28 67L27 67L29 64L29 60L28 60L27 63L23 62L23 63L23 66L26 65L22 71L22 72L27 72L27 78L24 80L21 80L23 78L23 77L22 75L21 75L21 78L20 78L18 76L23 83C20.8182 88.4127 21.7127 92.2949 25 97L23 100L29 102L26 100L26 103L21 102L26 113L22 117L24 115L27 115L24 118L24 119L46 119L46 142L45 142L44 128L43 128L41.5664 138.053L35 142L45 142L47 143L48 144L47 146L54 153L54 154L49 158L51 169L53 169L52 157L56 157L55 153L59 151L60 152L57 157L59 154L63 157L59 159L62 161L59 162L55 158C54.1557 167.297 48.1158 181.183 62 180L61 178L64 179L65 170L62 170C62.0824 162.978 66.2862 159.467 62 153L67 155L68 157L66 180L67 180L69 179C68.2112 174.267 67.5788 156.895 72 158L71 155L73 156L73 150L65 151L65 150L60 152L64 146L62 145L54 144L54 149L55 149L56 149L55 147L56 147L58 150L56 152L52 152L51 149C53.742 147.428 52.841 145.609 50 145C52.5394 136.409 45.8319 124.105 56 120L56 124L53 122L52 144L53 144L53 124L54 124L54 133L56 133L56 124L57 124L56 144L58 144L60 122L55 119L55 118L61 120L63 117L62 120L63 124L69 120L70 126L69 126L69 124L68 124L69 127C76.1156 127.954 72.456 137.035 76.2284 141.366C81.8441 147.813 90.0238 142.253 94 151C87.9879 151 76.8385 148.678 73 154L96 151L96 154L95 155L93 154L97 158L99 165L101 161L102 161L100 166L105 164L102 171L104 168L98 170L102 173L107 174L103 178L97 176L100 175L97 168L92 170L97 165L95 160L94 160L93 164L92 164L91 161L93 162L91 158L92 155C87.7629 153.751 83.5849 153.225 82 158L91 158L91 160C80.0524 160 79 162.292 79 173L83 172L82 167L89 169L89 167L92 168L90 175L86 174L89 170L85 170L85 171L87 172L83 173L85 177L81 177C80.386 174.149 79.6973 174.146 77 175L77 165L76 165L76 175L75 175L75 166L73 166L74 177L77 176L73 182L79 181L79 182L75 182L75 183L80 185L81 185L85 183L85 182L81 183L83 179L82 181L83 181L84 178L85 178L86 182L93 178L93 177L90 177L97 171L96 180L102 178L103 182L104 177L105 177L101 186L107 179L112 181L111 176L108 177L111 171L110 175L112 177L118 176L117 166L119 166L119 176L121 176L120 158L123 157L121 154L125 153L124 156L128 155L129 160L133 157L129 158L134 153L131 153L131 145L132 145L132 151L134 151L134 145L136 145L135 153L136 153L137 153L136 151L137 151L138 155L135 154L141 161C134.304 163.462 134.058 178.989 138 184L135 183L138 188C139.406 185.867 141.314 181.556 138 181L142 179L142 162L143 162L145 175L146 175L146 168L147 168L150 179L147 180L147 181L153 180L152 178L153 178L157 180L158 180L160 179L157 177L161 174L158 175L158 176L168 176L164 182L167 179L170 182L166 182L166 183L176 183L176 182L172 183L169 176L172 174L171 174L170 176L167 170L171 171L171 170L168 170L168 169L172 169L172 168L166 167L167 165L159 161C160.747 158.326 160.279 157.173 158 155L157 156L159 157L156 161L153 153L155 145L162 145L162 142L152 142L153 139L146 139L146 138C150.913 138 158.041 136.436 161 141L162 141L161 136L144 137L144 133L143 133L143 136L142 136L141 132L161 129L161 126L165 131L164 131L163 128L162 128L162 131L160 133L152 133L152 134L161 135L168 129L165 123L164 123L164 126L162 121L167 123L174 119L174 115L175 115L175 118L177 114L180 110L170 110L171 108L170 108L167 111L168 108L164 110L169 104L168 106L169 106L171 99L167 98C167.177 101.338 167.306 102.785 164 104L168 96L168 95L168 94L165 95L165 91L163 94L163 89L162 89L161 91L160 91L157 89L159 85L159 82L154 79L156 81L160 81L160 80L157 80L157 77L158 77L161 77L161 82L162 82L160 75L163 79L167 78L167 77L159 73L161 69L156 74L156 77L155 77L154 75L153 75L152 77C146.814 73.3675 138.951 74.1481 136 80C140.792 78.8591 147.972 77.3291 151 82L145 82L145 83L150 83L150 84L130 84L130 70L129 70C129 81.5305 128.362 86 141 86L140 90L130 89L130 93L135 96C131.027 95.5956 130.123 97.2405 131 101L126 100L126 99L129 99L129 92L119 89L121 84L118 87L117 87L116 83C110.937 87.2588 112.576 92.0986 116 97L114 100L120 100L119 96L116 96L116 95L116 93L120 92L121 94L120 97L127 97L125 100L122 100L123 98L120 102L117 100L117 103L112 102L114 107L113 107L111 104L110 105L112 108L111 109L108 102L111 103L113 101L113 100L110 100L110 99L112 94L108 95L106 89L105 89L106 97L103 96L104 89L97 88L100 87L95 83L98 78L97 78L94 81L97 77L95 72L94 72L93 76L92 76L91 73L93 74L93 70L89 67L88 75L86 71L87 76L86 78L84 75L83 75L87 81L88 81L93 78L91 79L91 80L94 86L98 84L96 92L102 90L103 95L93 92L94 94L93 94L90 90L93 90L93 89L90 89C92.1226 85.8405 93.6408 83.3852 90 81L88 87L89 82L82 85L80 83L82 79L83 82L85 83L86 83L81 72L83 67L86 68L86 67L81 66L80 69L75 69L79 66L75 63L79 59L76 57L76 56L79 52L85 54C84.0353 49.4588 78.5619 50.1043 77 54L73 52L79 49L75 46L75 45L80 46L81 45C78.861 42.7789 77.5715 42.173 75 44L74 44L72 40L71 40L71 43L68 45L74 46L71 45L72 51L69 52L69 56L66 53L67 50L70 46L65 46L65 43L65 42L70 41L69 36L68 36L68 41L67 41L67 37L66 37L63 42L62 35L61 35L58 40L61 33L57 29L61 32L62 29L53 26L52 26L50 28L51 25L50 25L49 28L48 28L49 25L47 23L47 16L46 16L43 21L42 17L38 16L42 15L42 14L40 13L32 18L32 11z"/>
<path style="fill:#43b12b; stroke:none;" d="M48 11L49 12L48 11M77 11L78 12L77 11M84 11L82 15L84 11M139 11L140 12L139 11M168 11L169 12L168 11z"/>
<path style="fill:#43b129; stroke:none;" d="M90 12L92 20L88 19L88 20C91.8155 20.5489 93.2811 19.4052 95 16L90 12M17 13L18 14L17 13M23 13L24 14L23 13z"/>
<path style="fill:#43b12b; stroke:none;" d="M31 13L32 14L31 13z"/>
<path style="fill:#43b129; stroke:none;" d="M108 13L109 14L108 13M114 13L115 14L114 13M127 17L127 18L125 18L125 19L127 19L127 20L125 20L125 21L129 20L128 17L133 17L129 16L133 15L133 14L131 13C129.116 13.5962 124.311 15.1497 127 17M144 13L143 20L140 22C144.999 21.2889 149.01 18.3252 148 13L147 13L145 18L146 13L144 13M172 13L172 15L190 15L190 13L172 13z"/>
<path style="fill:#43b12b; stroke:none;" d="M38 14L39 15L38 14M60 14L61 15L60 14z"/>
<path style="fill:#43b129; stroke:none;" d="M112 14L114 19L113 19L111 16L110 17L112 20L109 20L112 25L109 26L102 22L101 26L104 24L105 28L104 28L101 27L103 28L103 29L99 29C99.9523 25.4055 99.6673 23.6181 97 21L99 28L96 26C95.145 29.5713 93.8845 32.4469 90 33L91 39L94 37L93 40L95 41L98 40L94 46L94 47L96 49L92 43L95 44L89 40L91 49C94.3411 49 92.7258 51.5938 91 53L92 50L89 50L90 45L86 45L86 44C88.2464 42.6253 87.0783 41.8923 85 41L80 40L83 43C82.5125 46.4565 83.0992 48.0226 86 50L84 48L84 47L88 47L87 50L89 50L85 56L90 52L91 58L79 54L78 57L79 58L80 56L81 56L81 58L82 58C85.1912 55.8725 82.471 62.6619 81 64L82 60L78 61C82.0595 68.3541 91.7695 64.5187 98 63L98 64L95 64L93 66L97 70L98 76L100 76L103 67L102 67L101 72L100 69L97 70L98 65L121 63C116.664 55.4954 105.173 61.8102 98 60L110 58L110 57C104.737 56.9814 99.4317 56.5491 101 50L104 55L104 50L105 50L109 54L109 53L108 51L109 51L105 44L111 48L109 47L109 48L110 56L114 54L115 54L120 60L123 59C121.976 54.1322 118.847 49.5342 114 48L114 47L119 45L120 45L122 47L122 48L119 48L119 49C121.875 48.8982 123.785 48.7785 124 52L130 53L129 50L126 52L125 44L123 46L122 41L123 41L124 43L122 38L122 41L121 41L119 38L123 33L124 33L126 35L126 32L124 28L125 28L125 31L126 31L122 23L128 24L128 23L122 19C124.4 17.6862 123.656 15.8568 122 14L121 15L123 16L123 17L117 19L117 18L119 17L112 14z"/>
<path style="fill:#43b12b; stroke:none;" d="M129 14L130 15L129 14M151 14L152 15L151 14M7 15L8 16L7 15M10 15L11 16L10 15M29 15L25 17L24 21L30 17L31 20L32 20L29 15M68.6667 15.3333L69.3333 15.6667L68.6667 15.3333M101 15L102 16L101 15M159.667 15.3333L160.333 15.6667L159.667 15.3333z"/>
<path style="fill:#43b129; stroke:none;" d="M163 15L164 16L163 15z"/>
<path style="fill:#43b12b; stroke:none;" d="M6 16L7 17L6 16M9 27L13 28L14 28L11 25L12 22L13 22L18 26L21 25L16 20L17 23L10 16C4.76964 19.2538 8.50996 22.1985 9 27z"/>
<path style="fill:#43b129; stroke:none;" d="M137.333 16.6667L137.667 17.3333L137.333 16.6667z"/>
<path style="fill:#43b12b; stroke:none;" d="M34 17L33 22L36 25L37 21L42 21L37 17L38 20L34 19L36 18L34 17M116 17L117 18L116 17M143 17L144 18L143 17z"/>
<path style="fill:#43b129; stroke:none;" d="M7 19L7 20L10 21L10 20C8.03992 19.3466 7.446 19 10 19L7 19z"/>
<path style="fill:#43b12b; stroke:none;" d="M14 19L15 20L14 19M113 20C114.596 23.6559 115.397 25.6469 113 29L114 25L113 25L112 25L109 29L108 26L107 26L105 28L105 31L109 29L106 33L105 33L102 31L102 32L105 33L108 36L103 42L106 39L107 39L106 43L109 41L109 45L110 45L111 42L114 43L110 38L112 41C107.165 40.3957 109.884 36.4812 112 34L116 35L115 38L118 39L119 36L116 35L119 32L118 34L119 34L120 32L118 30L117 30L114 32L118 29L115 22L115 21L117 19L113 20z"/>
<path style="fill:#43b129; stroke:none;" d="M34.6667 20.3333L35.3333 20.6667L34.6667 20.3333M114 20L115 21L114 20z"/>
<path style="fill:#43b12b; stroke:none;" d="M119 20L122 29L123 26L120 25L123 21L119 20z"/>
<path style="fill:#43b129; stroke:none;" d="M146 20C144.06 23.1622 142.465 25.6426 146 28L146 27L144 25L148 25L146 22C148.38 23.4963 149.852 24.5305 148 27C153.527 26.3066 148.647 21.5443 146 20z"/>
<path style="fill:#43b12b; stroke:none;" d="M26 21L27 22L26 21M117 21L118 22L117 21M6 22L6 27L7 27L6 22M39 22L39 28L43 27L46 32L46 33L45 35L42 33L48 41L44 40L48 44L48 45L45 45L46 49L45 50L43 49L42 52L46 52L47 52L53 57L52 64L56 64L54 59L58 62L57 59L61 58L58 59L58 58L61 57L62 50L59 51L59 48L62 47L66 52C63.2325 52.6054 63.4234 53.2888 64 56C61.6981 55.9847 61.6981 58.0153 64 58C61.0129 61.5198 46.4644 68.0719 52 59L52 58L48 57L45 60L45 61L48 67L50 65L51 65L47 70L44 66L47 67L42 60L43 63L40 62L43 65C38.9288 67.1427 34.6996 66.7747 31 64L28 69L33 70L36 68L34 72L39 77L36 73L31 69L28 70L29 75L26 74L26 75L29 76L29 81L25 79L23 86L26 85L22 88L22 89L29 89L29 92L25 93L25 96L28 96L27 98L34 103L34 102L34 101L31 101L31 100L34 100L38 95L36 97L29 97L30 94L33 96L32 93L35 95C33.9069 91.6719 33.9095 89.8887 37 88L35 93L40 94L37 90L37 89L42 89L41 92L42 92L42 90L43 90L41 93L40 107L39 107L39 98L37 98L37 105L29 105L28 105L27 102L28 106L25 105L24 109L29 105L39 109L26 109L26 110L38 109L38 111C33.721 111 29.6942 110.264 27 114L45 116L45 117L36 117L36 118L49 116L52 120L52 119L50 116L54 118L64 116L66 118L66 122L70 118L77 120L71 121L71 126L76 127L74 126L74 127L78 127L78 122L79 122L80 126L81 126L80 121L82 126L85 126L76 129L76 130L79 130L79 143L92 142L95 145L95 146L93 147L98 149L95 146L99 146L100 150L96 152L96 153L100 155L100 156L98 157L97 157L97 155L95 155L101 160C105.3 155.609 112.232 157 118 157L118 156L109 156L109 155L117 155L117 153C113.635 153.012 102.258 156.976 100.613 153.026C98.9086 148.934 115.728 151 118 151L119 157L120 157L119 153L121 152C130.177 154.465 130.672 147.629 131 140L132 140L132 145L134 145L132 138L137 138L136 145L138 145L141 131L139 132L139 131L140 122L142 123C142.127 119.098 142.599 117.085 146 115C143.76 119.204 143.474 122.546 147 126L147 119L148 119L148 126L155 126L155 127L148 127L149 130C155.8 129.557 162.305 128.661 160 120L169 121L171 118L173 114L172 117L173 117L178 111L173 110L174 113L167 111L166 111L165 114L162 115L163 112L157 111L156 111L152 116L151 108L148 109L158 106L157 109L153 108L154 112L160 107L164 111L164 110L161 109L161 108L166 106L163 104L165 100L162 98L161 98L160 102L164 106L161 105L158 103L154 98L153 98L154 105C150.071 102.719 150.658 99.1648 151 95L154 96L159 102L159 98L156 98L158 94L163 99L164 99L165 95L159 94C159.515 92.4133 159.355 88.8847 158 92L157 92L156 89L151 89L147 93L147 92L150 91L148 87L151 88L151 87L149 86L152 86L152 82L151 82L142 91L138 93L140 92L139 95L136 93L137 97L134 97L135 102L136 107L134 100L131 103C126.88 100.844 124.765 101.461 121 104L122 102L121 102L120 105L119 105L118 102L119 106L116 105L116 108L114 107L113 108L115 113L107 108L108 111L106 107L100 107L102 103L98 105L98 102L103 101L104 106L106 104L106 103L104 103L104 101L110 102L110 96L106 97L108 100L103 96L94 94L94 98L93 98L92 94L88 95L90 91L86 94L85 90L83 92L81 91L81 89L85 89L86 85L83 87L78 81C81.8425 80.4279 81.905 73.9918 79 72L79 79L78 68L73 69L75 66L77 58L69 61L69 60L71 56L67 55L64 53L67 52L65 43L61 46L59 45L56 50L57 48L53 50L55 45L48 44L48 38L51 39L50 42L53 41L58 43L57 46L58 46L60 43L58 40L56 42L53 36L56 36L55 40L56 40L58 35L55 35L55 34L56 31L55 31L54 33L50 28L49 28L49 32L53 32L53 33L51 36L45 30L48 29L48 28L47 23L39 22M67.6667 22.3333L68.3333 22.6667L67.6667 22.3333M82 22L83 23L82 22M158.667 22.3333L159.333 22.6667L158.667 22.3333M22 23L23 24L22 23z"/>
<path style="fill:#43b129; stroke:none;" d="M40 23L41 24L40 23M44 23L44 26L46 25L46 24L44 23z"/>
<path style="fill:#43b12b; stroke:none;" d="M56.6667 23.3333L57.3333 23.6667L56.6667 23.3333M88.3333 23.6667L88.6667 24.3333L88.3333 23.6667M113 23L114 24L113 23M125 23L126 24L125 23z"/>
<path style="fill:#43b129; stroke:none;" d="M131 23L132 24L131 23M138 23L138 25L140 25L140 23L138 23z"/>
<path style="fill:#43b12b; stroke:none;" d="M28 24L29 25L28 24M162 24L163 25L162 24M19 25L20 26L19 25z"/>
<path style="fill:#43b129; stroke:none;" d="M41.3333 25.6667L41.6667 26.3333L41.3333 25.6667z"/>
<path style="fill:#43b12b; stroke:none;" d="M110 25L111 26L110 25z"/>
<path style="fill:#43b129; stroke:none;" d="M141 25L140 28L141 28L141 25z"/>
<path style="fill:#43b12b; stroke:none;" d="M7 27L7 37L8 37L12 35L9 29L13 30L13 29L7 27M52 27L52 30L53 30L54 30L52 27M81.3333 27.6667L81.6667 28.3333L81.3333 27.6667z"/>
<path style="fill:#43b129; stroke:none;" d="M116 27L117 28L116 27M63 28L62 32L63 36L67 35L66 29L63 28M111 28L106 33L106 34L106 35L113 34L114 30L111 28z"/>
<path style="fill:#43b12b; stroke:none;" d="M37 29L38 30L37 29M40 31C42.3962 31.5746 42.487 31.4751 43 29L40 31M89 29L90 30L89 29M103 29L104 30L103 29z"/>
<path style="fill:#43b129; stroke:none;" d="M127 29L128 30L127 29z"/>
<path style="fill:#43b12b; stroke:none;" d="M6 30L6 34L8 34L8 30L6 30M96 30L97 33L93 34L93 36L98 36L97 39L102 39L102 40C98.7062 41.1583 98.3625 42.6676 99 46L105 46L105 45L100 41L103 37L99 35L103 35L103 34L99 34L99 30L96 30M100.333 30.6667L100.667 31.3333L100.333 30.6667M120 30L121 31L120 30M122 30L123 31L122 30z"/>
<path style="fill:#43b129; stroke:none;" d="M158 30C159.104 35.1505 169.595 33 174 33L174 32L158 30M192 30L189 35L192 34L192 38L194 38L193 35L195 33L192 30z"/>
<path style="fill:#43b12b; stroke:none;" d="M121.333 32.6667L121.667 33.3333L121.333 32.6667M27 33L28 34L27 33z"/>
<path style="fill:#43b129; stroke:none;" d="M77 33L78 34L77 33M114.667 33.3333L115.333 33.6667L114.667 33.3333z"/>
<path style="fill:#43b12b; stroke:none;" d="M194 33L193 35L195 35L194 33z"/>
<path style="fill:#43b129; stroke:none;" d="M9 34L10 35L9 34M46 34L46 36L48 34L46 34M52.6667 34.3333L53.3333 34.6667L52.6667 34.3333M98 34L99 35L98 34M137 34L137 36L139 34L137 34M172 35L172 36L185 36L184 40L188 40L187 43L192 41L192 38L190 40L189 40L187 39L189 35L172 35M32 35L31 37L32 35M43 35L44 36L43 35M72.3333 35.6667L72.6667 36.3333L72.3333 35.6667z"/>
<path style="fill:#43b12b; stroke:none;" d="M91 35L92 36L91 35z"/>
<path style="fill:#43b129; stroke:none;" d="M123 35L122 37L123 35z"/>
<path style="fill:#43b12b; stroke:none;" d="M146 35L148 42L145 38L141 42L144 41L150 44L149 35L146 35z"/>
<path style="fill:#43b129; stroke:none;" d="M36 36L37 37L36 36M48 36L49 37L48 36M127 36L128 37L127 36z"/>
<path style="fill:#43b12b; stroke:none;" d="M6 37L6 39L8 39L6 37M13 37L14 38L13 37M22 37L23 38L22 37z"/>
<path style="fill:#43b129; stroke:none;" d="M51 37L51 39L53 39L51 37M98 37L99 38L98 37z"/>
<path style="fill:#43b12b; stroke:none;" d="M104 37L105 38L104 37M113 37L114 38L113 37M61 38L63 40L61 38M152 38L153 39L152 38M114 39L114 40L117 41L115 43L115 44L118 46L118 43L121 45C120.272 40.7591 117.755 40.3365 114 39z"/>
<path style="fill:#43b129; stroke:none;" d="M130 39L131 40L130 39M192 39L191 44L195 42L192 39z"/>
<path style="fill:#43b12b; stroke:none;" d="M34 40L32 46L35 46L35 52L38 50L40 53L41 46L43 47L43 46L43 43L40 44L37 42L35 46L34 41L36 42L34 40z"/>
<path style="fill:#43b129; stroke:none;" d="M51 40L52 41L51 40z"/>
<path style="fill:#43b12b; stroke:none;" d="M123 40L124 41L123 40M135 40L136 41L135 40z"/>
<path style="fill:#43b129; stroke:none;" d="M142 40L143 41L142 40M144 40L145 41L144 40z"/>
<path style="fill:#43b12b; stroke:none;" d="M6 42L7 43L6 42z"/>
<path style="fill:#43b129; stroke:none;" d="M26 42L27 43L26 42M117 42L118 43L117 42z"/>
<path style="fill:#43b12b; stroke:none;" d="M77 43L78 44L77 43z"/>
<path style="fill:#43b129; stroke:none;" d="M189 43L190 44L189 43M193.667 43.3333L194.333 43.6667L193.667 43.3333z"/>
<path style="fill:#43b12b; stroke:none;" d="M21 44L21 45L24 46L21 44z"/>
<path style="fill:#43b129; stroke:none;" d="M33 44L34 45L33 44M49 44L47 49L51 54L52 54L53 56L55 54L58 56L57 52L59 53L59 52L55 50L52 54L53 51L49 49L52 50L54 45L52 48L51 48L49 44z"/>
<path style="fill:#43b12b; stroke:none;" d="M83 45L83 46L86 46L83 45M112 44L112 45L115 46L112 44z"/>
<path style="fill:#43b129; stroke:none;" d="M186 48L187 46L188 46L190 47L189 50L190 50L193 44C189.708 45.1023 186.429 44.0691 186 48z"/>
<path style="fill:#43b12b; stroke:none;" d="M6 46L6 48L8 48L6 46M10 46L9 50L6 49L8 53L9 53L10 46z"/>
<path style="fill:#43b129; stroke:none;" d="M37 46L36 49L37 49L37 46z"/>
<path style="fill:#43b12b; stroke:none;" d="M95 46L96 47L95 46M97 46L98 50L99 50L98 48L99 48L102 49L97 46M112 46L113 51L112 54L115 52L116 52L119 55L117 50L112 46M124 46L123 48L124 46z"/>
<path style="fill:#43b129; stroke:none;" d="M128 46L127 49L128 49L128 46M193 46L192 47L192 48L192 49L195 46L193 46M18 47L19 48L18 47z"/>
<path style="fill:#43b12b; stroke:none;" d="M30 47L31 48L30 47z"/>
<path style="fill:#43b129; stroke:none;" d="M46 47L47 48L46 47M64 47L65 48L64 47z"/>
<path style="fill:#43b12b; stroke:none;" d="M74 47L75 48L74 47M105 47L102 51L105 47z"/>
<path style="fill:#43b129; stroke:none;" d="M137 47L138 48L137 47M39 48L39 50L41 50L39 48z"/>
<path style="fill:#43b12b; stroke:none;" d="M72 48L73 49L72 48z"/>
<path style="fill:#43b129; stroke:none;" d="M81.3333 48.6667L81.6667 49.3333L81.3333 48.6667M130 48L130 50L132 50L130 48M175.667 48.3333L176.333 48.6667L175.667 48.3333z"/>
<path style="fill:#43b12b; stroke:none;" d="M74.6667 49.3333L75.3333 49.6667L74.6667 49.3333z"/>
<path style="fill:#43b129; stroke:none;" d="M29.3333 50.6667L29.6667 51.3333L29.3333 50.6667M45 50L44 52L46 52L45 50z"/>
<path style="fill:#43b12b; stroke:none;" d="M96 50L94 56L94 53L93 53L92 56L95 57L90 60L89 57L84 63L88 62L91 64L89 60L94 63L98 61L110 63L110 62L95 60C96.3958 56.2875 98.5824 53.499 96 50z"/>
<path style="fill:#43b129; stroke:none;" d="M120 50L121 51L120 50M136 50L135 51L137 52L136 55L154 58L154 57C145.497 57 141.5 56.749 136 50z"/>
<path style="fill:#43b12b; stroke:none;" d="M6 52L7 53L6 52M71 52C71.8601 55.0809 72.9077 55.522 76 55L76 54L71 52M143 52L144 53L143 52M187 53L194 59C194.484 55.9541 194.177 54.9268 191 55L195 53L187 53M41.3333 53.6667L41.6667 54.3333L41.3333 53.6667z"/>
<path style="fill:#43b129; stroke:none;" d="M123 53L124 54L123 53z"/>
<path style="fill:#43b12b; stroke:none;" d="M184 53L183 56L186 57L181 60L180 57L175 63L179 62L182 64L180 60L185 63L187 62L186 58L190 59L187 58L187 54L186 54L185 56L184 53z"/>
<path style="fill:#43b129; stroke:none;" d="M191 55L195 55C193.444 53.1871 192.556 53.1871 191 55z"/>
<path style="fill:#43b12b; stroke:none;" d="M23 54L24 55L23 54z"/>
<path style="fill:#43b129; stroke:none;" d="M37 54L38 55L37 54z"/>
<path style="fill:#43b12b; stroke:none;" d="M56 54L57 55L56 54z"/>
<path style="fill:#43b129; stroke:none;" d="M128 54L129 55L128 54z"/>
<path style="fill:#43b12b; stroke:none;" d="M142 54L142 55L156 55L142 54M7 55L6 59L9 58L7 55M120 55L120 58L121 58L120 55z"/>
<path style="fill:#43b129; stroke:none;" d="M126 55L124 57L124 58L126 64L126 55z"/>
<path style="fill:#43b12b; stroke:none;" d="M31 56L32 57L31 56z"/>
<path style="fill:#43b129; stroke:none;" d="M38.6667 56.3333L39.3333 56.6667L38.6667 56.3333M54 56L58 58L58 57L54 56z"/>
<path style="fill:#43b12b; stroke:none;" d="M98 56L97 58L99 58L98 56z"/>
<path style="fill:#43b129; stroke:none;" d="M129.667 56.3333L130.333 56.6667L129.667 56.3333M170.333 56.6667L170.667 57.3333L170.333 56.6667z"/>
<path style="fill:#43b12b; stroke:none;" d="M7 59L6 64L10 65L10 61L11 61L12 63L13 59L10 60L10 58L7 59z"/>
<path style="fill:#43b129; stroke:none;" d="M39 58L40 59L39 58z"/>
<path style="fill:#43b12b; stroke:none;" d="M44 58L45 59L44 58z"/>
<path style="fill:#43b129; stroke:none;" d="M66.3333 58.6667L66.6667 59.3333L66.3333 58.6667M130 58L131 59L130 58z"/>
<path style="fill:#43b12b; stroke:none;" d="M23 59L24 60L23 59z"/>
<path style="fill:#43b129; stroke:none;" d="M68 59L69 60L68 59M73.6667 59.3333L74.3333 59.6667L73.6667 59.3333M93.3333 59.6667L93.6667 60.3333L93.3333 59.6667M184.333 59.6667L184.667 60.3333L184.333 59.6667z"/>
<path style="fill:#43b12b; stroke:none;" d="M189 60L193 63L195 67L192 62L193 60L189 60M6 60L7 61L6 60M18 60L19 61L18 60z"/>
<path style="fill:#43b129; stroke:none;" d="M48.3333 60.6667L48.6667 61.3333L48.3333 60.6667M123 60L125 65L123 60M172 60L173 61L172 60M59 63L57 69L59 66L63 69L59 71L61 74L67 74L65 77L64 77L61 77L60 77L55 70L53 74L52 69L56 69L56 66L52 66L49 70L50 73L46 74L48 71L41 72L43 76L40 75L42 82L38 85L32 86L31 82L36 83L36 79L31 80L30 86L34 88L35 85L44 87L43 80L44 79L48 80L48 79L45 78L46 75L49 77L48 74C50.4909 77.9459 47.4131 80.6916 45 84L49 83L50 87L45 86L42 106L46 104L46 112L47 112L45 94L47 102L51 93L52 93L50 111C54.501 106.592 53.6919 97.7238 52 92L49 94L47 93L51 91C52.2952 86.7638 56.0324 86.6207 60 87L60 88L56 87L57 90L52 89C56.7067 95.5368 56.2692 105.924 52 113L58 115L56 114L56 115L59 116L60 111L61 111L61 116L65 111L66 111L66 114L71 113L65 115L65 116L75 114L75 92L79 93C74.3591 99.6726 77.0373 107.311 77 115L72 118L80 118L77 118L77 122L83 119L83 115L84 115L84 118L86 114L90 116L87 117L89 120L86 119L86 121L82 120L82 121L86 127L89 121L90 121L92 123L90 126L91 127L94 125L93 128L95 129L98 128L94 134L94 135L96 137L92 131L95 132L89 128L91 137L95 144L96 138L97 138L96 146L118 145L119 152C123.786 151.367 124.844 149.79 125 145L126 145L126 152L127 152L127 145L130 145L131 139L128 138L127 145L126 145L126 140L122 138L119 145L118 145L117 137L117 136L119 133L122 135L122 136L119 136L119 137L126 139L128 134L127 137L128 137L128 130L134 135L132 134L132 135L133 138L138 136L138 135C136.831 133.028 136.703 133.306 139 133L139 132L136 129C141.264 128.272 139.699 115.312 140 111L138 111L139 106L140 106L143 106L140 110C145.389 109.233 150.895 104.936 146 100L146 99L148 97L141 92L139 106L138 106L138 104L137 104L134 109L133 105L129 105L129 102C127.202 102.841 124.892 103.569 127 105L127 106L125 106L125 107L127 107L127 108L125 108L125 109L129 108L128 105L133 109L128 109L127 113L122 107L124 104L114 108L117 113L114 115L113 115L109 112L109 113L111 113L111 114L105 113L102 110L101 114L104 112L105 116L99 117C100.16 112.597 98.8781 110.405 96 107L100 108L100 107L96 105L91 110L92 112L91 112C88.3583 110.391 86.9807 109.375 85 112L87 111L80 114L80 113L83 113L83 112L79 112L79 111L84 111L84 110L79 110L79 108C85.0186 107.988 91.8846 110.164 95 104L90 100L92 108L81 106L81 99L82 99L82 105L84 105L84 99L85 99L85 105L86 105L91 98L91 97L87 96L88 100L85 99L85 94C80.9163 97.7031 80.0192 100.579 80 106L79 106L78 96L81 96L79 90L82 86L79 88L75 87L75 86L76 79L78 80L68 73L71 69L76 76L77 72L71 67L73 68L73 62L63 64L67 62L66 64L67 64L68 62L59 63M87 61L88 62L87 61M163.333 61.6667L163.667 62.3333L163.333 61.6667M178 61L179 62L178 61M14 62L15 66L16 66L14 62z"/>
<path style="fill:#43b12b; stroke:none;" d="M70.3333 63.6667L70.6667 64.3333L70.3333 63.6667M185 63L170 66L167 65L166 69L171 69L172 66L177 67L177 68L174 67L173 71L172 71L172 69L171 69L170 74L169 74L169 68L162 67L168 72L167 76L171 83L167 82L168 87L170 88L173 86L172 83L173 83L174 83L173 85L174 85L180 82L179 87L181 81C183.725 83.9289 182.575 85.6227 181 89L184 89L184 90L181 90L185 94L184 92L188 93L187 89L188 89L189 92L190 92L191 89L185 86L182 80L184 78L179 81L178 81L174 75L175 75L177 78L178 76L177 71L180 72L179 75C181.801 72.2265 181.223 70.5527 180 67L183 68L182 70L184 70L184 74L182 73L183 76L184 76L185 72L186 72L189 79L190 79L192 76L191 79L195 79L193 73L188 75L188 66L187 66L185 69L184 66L187 66L187 63L185 63M7 64L9 73L10 73L11 70L14 72L12 66L9 68L8 68L7 64z"/>
<path style="fill:#43b129; stroke:none;" d="M44.6667 64.3333L45.3333 64.6667L44.6667 64.3333z"/>
<path style="fill:#43b12b; stroke:none;" d="M61 64L65 73L70 69L70 67L69 66L61 64M75 64L76 65L75 64M188 64L190 74L191 64L188 64z"/>
<path style="fill:#43b129; stroke:none;" d="M17 66L15 67L15 68L17 66M32.6667 67.3333L33.3333 67.6667L32.6667 67.3333M37 67L38 72L42 69L38 70L39 67L37 67M67 67L66 69L68 69L67 67z"/>
<path style="fill:#43b12b; stroke:none;" d="M95 67L97 69L97 67L95 67z"/>
<path style="fill:#43b129; stroke:none;" d="M104 67L104 75L101 78C105.116 75.4754 105.845 71.3984 104 67M21 68L22 69L21 68z"/>
<path style="fill:#43b12b; stroke:none;" d="M26 68L24 72L26 68M90 68L91 69L90 68M181 68L182 69L181 68M6 69L6 73L7 73L6 69z"/>
<path style="fill:#43b129; stroke:none;" d="M43 69L44 70L43 69z"/>
<path style="fill:#43b12b; stroke:none;" d="M80.3333 69.6667L80.6667 70.3333L80.3333 69.6667z"/>
<path style="fill:#43b129; stroke:none;" d="M83 69L84 72L87 70L87 69L83 69M174 69L175 72L178 70L178 69L174 69z"/>
<path style="fill:#43b12b; stroke:none;" d="M16 70L14 76L17 72L20 73L20 70L16 70M62 70L62 72L64 70L62 70z"/>
<path style="fill:#43b129; stroke:none;" d="M190 70L189 72L190 70z"/>
<path style="fill:#43b12b; stroke:none;" d="M51 71L52 72L51 71M194 71L195 72L194 71z"/>
<path style="fill:#43b129; stroke:none;" d="M30 72C30.1534 76.6122 31.1074 78.6407 36 78L36 77L32 78L30 72z"/>
<path style="fill:#43b12b; stroke:none;" d="M72 72L74 74L72 72M87 72L88 73L87 72M98 72L99 73L98 72z"/>
<path style="fill:#43b129; stroke:none;" d="M162 72L164 74L162 72M172 72L171 81L172 81L173 79L174 82L176 83L177 83L174 72L172 72z"/>
<path style="fill:#43b12b; stroke:none;" d="M178 72L179 73L178 72M6 75L9 80L13 80L14 76L10 78L11 74L14 75C13.0537 70.2685 7.18569 75.2964 6 75M43 73L44 76L45 76L45 73L43 73M194 73L195 74L194 73M51 74L53 76L53 77L49 82L50 83L53 81L54 84L51 87C54.1701 85.9433 58.9396 82.2414 58 86L61 86L60 79L55 79L55 80L60 84L54 83L53 80L53 79L59 78L56 74L56 75L58 75L58 76L51 74M11 75L12 76L11 75z"/>
<path style="fill:#43b129; stroke:none;" d="M23 75L24 76L23 75M34 75L35 76L34 75z"/>
<path style="fill:#43b12b; stroke:none;" d="M69 75L66 77L67 81L62 76L61 79L64 82L61 80L65 84L68 82L68 85C65.3451 87.895 64.1115 90.0049 60 89C58.4996 94.9111 53.9029 106.061 60 111L60 93L61 93L63 112L66 101L64 101L64 110L63 110L63 92C66.734 94.2905 66.9502 96.7923 67 101L68 101L69 91L71 91L70 103L73 103L73 91L75 90L79 88L67 88L68 83L73 83L72 85L75 78L72 79L69 75M89 75L87 80L88 80L91 75L89 75M102 75L103 76L102 75M107.333 75.6667L107.667 76.3333L107.333 75.6667M180 75L178 80L179 80L182 75L180 75M194 75L195 76L194 75z"/>
<path style="fill:#43b129; stroke:none;" d="M54 76L55 77L54 76z"/>
<path style="fill:#43b12b; stroke:none;" d="M153 76L152 79L153 76M41 77L43 79L41 77z"/>
<path style="fill:#43b129; stroke:none;" d="M70 77L70 82L71 82L70 77z"/>
<path style="fill:#43b12b; stroke:none;" d="M185 77L186 83L189 82L187 86L190 88L193 84L192 80L189 82L188 77L185 77M15 78L15 81L16 81L15 78M106 78L106 81L107 81L106 78M6 79L7 84L8 84L8 79L6 79z"/>
<path style="fill:#43b129; stroke:none;" d="M37 79L37 81L39 81L39 79L37 79M67 79L69 81L67 79M98 82L104 80L98 82M187 79L188 80L187 79M51 80L52 81L51 80M72 80L73 81L72 80z"/>
<path style="fill:#43b12b; stroke:none;" d="M152 80L156 84L152 80z"/>
<path style="fill:#43b129; stroke:none;" d="M163 80L164 81L163 80z"/>
<path style="fill:#43b12b; stroke:none;" d="M167 80L168 81L167 80M193 80L194 85L195 85L195 80L193 80M8 81L9 82L8 81z"/>
<path style="fill:#43b129; stroke:none;" d="M25 84L29 84L27 81L25 84z"/>
<path style="fill:#43b12b; stroke:none;" d="M18 82L19 83L18 82M42 82L41 86L42 82M47 82L48 83L47 82M109 82L110 83L109 82z"/>
<path style="fill:#43b129; stroke:none;" d="M11 83L12 84L11 83M102 83L103 84L102 83z"/>
<path style="fill:#43b12b; stroke:none;" d="M6 84C6.06424 86.9934 5.94608 88.3456 9 89L6 84z"/>
<path style="fill:#43b129; stroke:none;" d="M54 84L55 85L54 84M78 84L79 85L78 84z"/>
<path style="fill:#43b12b; stroke:none;" d="M91 84L92 85L91 84z"/>
<path style="fill:#43b129; stroke:none;" d="M169.667 84.3333L170.333 84.6667L169.667 84.3333z"/>
<path style="fill:#43b12b; stroke:none;" d="M182 84L183 85L182 84M64 85L65 86L64 85M70 85L71 86L70 85M74 85L75 86L74 85M114.667 85.3333L115.333 85.6667L114.667 85.3333M155 85L156 86L155 85M161 85L162 86L161 85M165 85L167 87L165 85M193 85L194 86L193 85z"/>
<path style="fill:#43b129; stroke:none;" d="M28 86L29 87L28 86z"/>
<path style="fill:#43b12b; stroke:none;" d="M194 86L192 89L194 88L194 89L193 90L194 91L195 91L194 86z"/>
<path style="fill:#43b129; stroke:none;" d="M26 87L27 88L26 87z"/>
<path style="fill:#43b12b; stroke:none;" d="M62 87L62 88L65 88L65 87L62 87M116 87L113 88L113 89L119 89L116 87M153 87L153 88L156 88L156 87L153 87z"/>
<path style="fill:#43b129; stroke:none;" d="M29 88L30 89L29 88M31 88L31 93L32 93L31 88z"/>
<path style="fill:#43b12b; stroke:none;" d="M46 89L46 90L50 89L46 89M86 88L88 91L89 88L86 88z"/>
<path style="fill:#43b129; stroke:none;" d="M94 88L94 91L95 91L94 88M143 89L146 92L147 89L143 89z"/>
<path style="fill:#43b12b; stroke:none;" d="M177 88L179 91L180 88L177 88z"/>
<path style="fill:#43b129; stroke:none;" d="M185 88L185 91L186 91L185 88M12 89L12 95L13 95L12 89M14.3333 89.6667L14.6667 90.3333L14.3333 89.6667M66 92L67 92L69 91C67.5827 88.4766 66.5169 89.5416 66 92M71.3333 89.6667L71.6667 90.3333L71.3333 89.6667M76 89L77 90L76 89z"/>
<path style="fill:#43b12b; stroke:none;" d="M97 89L98 90L97 89M7 90L8 93L7 90z"/>
<path style="fill:#43b129; stroke:none;" d="M36 90L37 91L36 90z"/>
<path style="fill:#43b12b; stroke:none;" d="M54.6667 90.3333L55.3333 90.6667L54.6667 90.3333M57.6667 90.3333L58.3333 90.6667L57.6667 90.3333M145 90L146 91L145 90M24 91L25 92L24 91M45 91L46 92L45 91z"/>
<path style="fill:#43b129; stroke:none;" d="M61 91L62 92L61 91z"/>
<path style="fill:#43b12b; stroke:none;" d="M115 91L116 92L115 91z"/>
<path style="fill:#43b129; stroke:none;" d="M152 91L145 94L145 95L156 96L157 95L156 92L153 94L152 91z"/>
<path style="fill:#43b12b; stroke:none;" d="M191 91L189 93L189 94L193 95L191 91z"/>
<path style="fill:#43b129; stroke:none;" d="M29 92L28 94L29 92M82 92L83 93L82 92z"/>
<path style="fill:#43b12b; stroke:none;" d="M121 92L124 96L121 92z"/>
<path style="fill:#43b129; stroke:none;" d="M173 92L174 93L173 92z"/>
<path style="fill:#43b12b; stroke:none;" d="M193 92L194 96L195 96L193 92z"/>
<path style="fill:#43b129; stroke:none;" d="M75.6667 94.3333L76.3333 94.6667L75.6667 94.3333M175 94L172 98L172 99L174 100L174 101L171 107L177 106L173 107L177 103L182 106L179 102L178 104L177 103L182 98L182 97L178 96L179 100L176 99L175 94z"/>
<path style="fill:#43b12b; stroke:none;" d="M7 95L6 102L12 101L13 106L15 104L15 103L13 103L13 101C15.8193 101.825 16.8864 101.791 18 99L7 100L7 99L12 96L8 98L7 95z"/>
<path style="fill:#43b129; stroke:none;" d="M22 95L23 96L22 95M113 95L114 96L113 95z"/>
<path style="fill:#43b12b; stroke:none;" d="M142.333 95.6667L142.667 96.3333L142.333 95.6667z"/>
<path style="fill:#43b129; stroke:none;" d="M162 95L164 97L162 95z"/>
<path style="fill:#43b12b; stroke:none;" d="M189 95L190 96L189 95z"/>
<path style="fill:#43b129; stroke:none;" d="M95.6667 96.3333L96.3333 96.6667L95.6667 96.3333z"/>
<path style="fill:#43b12b; stroke:none;" d="M191 96L192 101L193 101L195 99L195 98L194 96L191 96z"/>
<path style="fill:#43b129; stroke:none;" d="M6 97L7 98L6 97M98 97L98 100L100 100L100 97L98 97z"/>
<path style="fill:#43b12b; stroke:none;" d="M145 97L138 98L138 99L143 100L141 106L142 106L146 101L143 106C148.117 104.641 147.123 100.946 145 97z"/>
<path style="fill:#43b129; stroke:none;" d="M30 98L30 100L32 98L30 98z"/>
<path style="fill:#43b12b; stroke:none;" d="M82 98L83 99L82 98z"/>
<path style="fill:#43b129; stroke:none;" d="M93 99L95 103L98 102L96 98L93 99M101.667 98.3333L102.333 98.6667L101.667 98.3333z"/>
<path style="fill:#43b12b; stroke:none;" d="M131.667 98.3333L132.333 98.6667L131.667 98.3333z"/>
<path style="fill:#43b129; stroke:none;" d="M149 98L150 99L149 98z"/>
<path style="fill:#43b12b; stroke:none;" d="M173 98L174 99L173 98M35 99L36 100L35 99M168 99L169 100L168 99M175 99L173 103L175 99z"/>
<path style="fill:#43b129; stroke:none;" d="M181 100L183 108L179 107L179 108C182.816 108.549 184.281 107.405 186 104L181 100z"/>
<path style="fill:#43b12b; stroke:none;" d="M194 100L193 102L195 102L194 100z"/>
<path style="fill:#43b129; stroke:none;" d="M23 101L24 102L23 101M114 101L115 102L114 101z"/>
<path style="fill:#43b12b; stroke:none;" d="M140 101L139 103L141 103L140 101M189 101L191 104L188 108L191 109L194 106L193 102L189 101M68 102L70 112L68 102z"/>
<path style="fill:#43b129; stroke:none;" d="M88.3333 102.667L88.6667 103.333L88.3333 102.667M132 102L131 104L132 102z"/>
<path style="fill:#43b12b; stroke:none;" d="M151 102L152 103L151 102M168 102L169 103L168 102M7 103L8 104L7 103M10 103L11 104L10 103M159.667 103.333L160.333 103.667L159.667 103.333M6 104L7 105L6 104M9 115L14 116L13 112L12 114L11 114L11 110L14 113L20 114L20 113L18 113L18 112L21 113L16 108L17 111L10 104C4.99548 107.113 8.07806 110.273 9 115z"/>
<path style="fill:#43b129; stroke:none;" d="M90 104L89 106L91 106L90 104z"/>
<path style="fill:#43b12b; stroke:none;" d="M106 105L107 106L106 105z"/>
<path style="fill:#43b129; stroke:none;" d="M7 107L7 108L10 109L10 108C8.03993 107.347 7.446 107 10 107L7 107z"/>
<path style="fill:#43b12b; stroke:none;" d="M194 106L193 109L194 106M14 107L15 108L14 107M119 108L119 113L120 113L123 109L119 108z"/>
<path style="fill:#43b129; stroke:none;" d="M146 108L143 113L148 115L148 116L146 118C149.475 118.81 149.737 121.717 150 125C156.202 124.487 158.796 122.234 162 117L157 122L157 118L155 116L148 117L148 116C152.32 113.169 149.468 110.169 146 108z"/>
<path style="fill:#43b12b; stroke:none;" d="M96 109L94 113L90 113L90 114L94 117L91 116L93 119L90 121L97 120L93 122L93 124L102 127L102 128C98.432 129.257 97.7268 131.821 101 134L100 138L109 138L109 135L121 133L120 130L123 136L127 132L127 131L125 131L125 129L127 130L127 129L127 120L126 120L125 129L124 129L127 113L126 111L122 111L119 114L119 115L122 115L122 129L121 129L121 122L120 122L120 130L112 131L113 128C109.013 128.003 105.332 127.402 103 131L111 130L111 132L100 129L103 122L99 122L94 113L99 116L96 109M117 109L118 110L117 109M6 110L6 115L7 115L6 110M130 110L128 129L134 130L132 120L135 120L135 111L136 111L136 127L137 127L138 111L130 110M146 110L148 115L149 115L146 110M158.667 110.333L159.333 110.667L158.667 110.333z"/>
<path style="fill:#43b129; stroke:none;" d="M182 110L183 111L182 110z"/>
<path style="fill:#43b12b; stroke:none;" d="M190 110L188 116L185 115L185 117L182 116L184 119L181 121L187 119L184 122L184 124L186 125L187 125L189 123L189 117L192 118L192 113L194 115L195 115L192 110L192 112L191 112L190 110M194 110L195 111L194 110M22 111L23 112L22 111z"/>
<path style="fill:#43b129; stroke:none;" d="M48 111L46 116L48 111z"/>
<path style="fill:#43b12b; stroke:none;" d="M56.6667 111.333L57.3333 111.667L56.6667 111.333M88 111L88 114L89 114L88 111M113 111L114 112L113 111z"/>
<path style="fill:#43b129; stroke:none;" d="M131 111L132 112L131 111z"/>
<path style="fill:#43b12b; stroke:none;" d="M71 112L72 113L71 112z"/>
<path style="fill:#43b129; stroke:none;" d="M169 112L163 118C165.757 116.621 167.818 114.727 167 118L168 118L169 112z"/>
<path style="fill:#43b12b; stroke:none;" d="M8 113L9 114L8 113z"/>
<path style="fill:#43b129; stroke:none;" d="M36 113L36 114L45 114L36 113M122 113L123 121L124 121L122 113z"/>
<path style="fill:#43b12b; stroke:none;" d="M25 114L26 115L25 114z"/>
<path style="fill:#43b129; stroke:none;" d="M50 114L49 116L50 114M52 114L54 116L52 114z"/>
<path style="fill:#43b12b; stroke:none;" d="M107 114L105 116L102 119L102 120L105 121L104 124L112 127L113 127C112.933 121.4 110.9 117.967 107 114M116 114L115 117L110 116L110 117C114.996 116.822 114 123.46 114 127C118.662 124.14 119.262 118.306 116 114z"/>
<path style="fill:#43b129; stroke:none;" d="M141 114L142 115L141 114M143 114L144 115L143 114z"/>
<path style="fill:#43b12b; stroke:none;" d="M192 114L192 117L194 116L194 115L192 114M7 115L8 123L9 124L12 123C10.6244 120.699 9.76118 118.478 13 118L13 117L9 118L7 115M81.3333 115.667L81.6667 116.333L81.3333 115.667z"/>
<path style="fill:#43b129; stroke:none;" d="M116 115L117 116L116 115M156 115L156 116L162 116L156 115z"/>
<path style="fill:#43b12b; stroke:none;" d="M6 116L7 117L6 116M101 117L101 118L104 118L101 117M194 116L192 119L195 120L194 116z"/>
<path style="fill:#43b129; stroke:none;" d="M16 117L14 121L18 118L16 117M70 117L71 118L70 117z"/>
<path style="fill:#43b12b; stroke:none;" d="M89 117L90 118L89 117z"/>
<path style="fill:#43b129; stroke:none;" d="M107 117L105 121L109 119L106 122L106 123L111 124L107 117z"/>
<path style="fill:#43b12b; stroke:none;" d="M153 117L152 124L153 124L155 123L153 120L153 117z"/>
<path style="fill:#43b129; stroke:none;" d="M178.667 117.333L179.333 117.667L178.667 117.333z"/>
<path style="fill:#43b12b; stroke:none;" d="M7 118L6 122L7 118z"/>
<path style="fill:#43b129; stroke:none;" d="M194 118L195 119L194 118z"/>
<path style="fill:#43b12b; stroke:none;" d="M47 119L48 120L47 119M54 119L55 120L54 119M79 119L80 120L79 119M100 119L101 120L100 119M170 119L171 120L170 119M189 119L190 121L191 121L192 119L189 119M87 120L88 121L87 120z"/>
<path style="fill:#43b129; stroke:none;" d="M21 121L22 122L21 121z"/>
<path style="fill:#43b12b; stroke:none;" d="M48 121L49 122L48 121M173 121L173 126L176 126L173 128L173 130C175.168 130.716 176.031 131.294 176 129L179 130L177 132L177 133L181 133L180 138L181 139L183 138L180 143L179 143L180 138C175.703 137.106 174.104 135.421 174 131L171 134L170 134L166 133L166 134L170 136L170 137L164 141L165 142L168 140L167 142L168 142L170 138L176 142L173 141C174.155 143.23 175.55 145.794 178 144L182 146C182.331 143.288 185.569 137.599 182 137L180 128L186 132L183 131C185.049 137.455 188.279 140.144 195 138L195 137L191 135L190 138L189 138L190 135L188 134L187 134L186 136C186.355 132.56 188.149 133.023 191 134L192 133L191 130L187 131L188 128L184 128L185 125L182 127L181 126L183 123L181 121L180 121L177 127L173 121M194 121L193 123L195 123L194 121z"/>
<path style="fill:#43b129; stroke:none;" d="M9 122L10 123L9 122M15 122L15 123L18 123L15 122z"/>
<path style="fill:#43b12b; stroke:none;" d="M87 122L88 125L87 122z"/>
<path style="fill:#43b129; stroke:none;" d="M98 122L99 125L97 124L97 125L102 126L98 122z"/>
<path style="fill:#43b12b; stroke:none;" d="M178 122L179 125L178 122M190 122L187 127L190 128L192 126L192 122L190 122M6 123L8 125L8 123L6 123M57 123L58 124L57 123z"/>
<path style="fill:#43b129; stroke:none;" d="M61 123L60 144L61 144L61 123M73 123L72 125L73 123M76 123L77 124L76 123M159.333 124.667L159.667 125.333L159.333 124.667z"/>
<path style="fill:#43b12b; stroke:none;" d="M194 124L192 126L192 127L194 129L195 129L194 124M6 125L6 127L8 127L6 125M13 125L14 126L13 125z"/>
<path style="fill:#43b129; stroke:none;" d="M59 125L59 134L60 134L59 125M63 125L63 135L64 135L63 125M66 125L65 136L67 136L66 125z"/>
<path style="fill:#43b12b; stroke:none;" d="M104 125L105 126L104 125z"/>
<path style="fill:#43b129; stroke:none;" d="M157 125L158 128L157 125z"/>
<path style="fill:#43b12b; stroke:none;" d="M165 126L165 128L167 128L165 126z"/>
<path style="fill:#43b129; stroke:none;" d="M130 127L131 128L130 127z"/>
<path style="fill:#43b12b; stroke:none;" d="M191 127L191 130L192 130L191 127z"/>
<path style="fill:#43b129; stroke:none;" d="M80 128L83 133L80 132L80 141L92 138L89 138L90 133L86 133L86 132C88.2464 130.625 87.0783 129.892 85 129L80 128z"/>
<path style="fill:#43b12b; stroke:none;" d="M135 128L136 129L135 128z"/>
<path style="fill:#43b129; stroke:none;" d="M122 129L124 131L124 129L122 129z"/>
<path style="fill:#43b12b; stroke:none;" d="M6 130L7 131L6 130z"/>
<path style="fill:#43b129; stroke:none;" d="M26 130L27 131L26 130z"/>
<path style="fill:#43b12b; stroke:none;" d="M193.667 130.333L194.333 130.667L193.667 130.333M47 131C47 135.681 45.8588 141.013 50 144L49 131L47 131M133 131L134 132L133 131M168 131L169 132L168 131z"/>
<path style="fill:#43b129; stroke:none;" d="M189 131L190 132L189 131z"/>
<path style="fill:#43b12b; stroke:none;" d="M192 131L193 132L192 131M21 132L21 133L24 134L21 132M84 132C81.3767 137.172 83.728 138.827 89 139L89 138L86 138L86 137L88 135L83 135L83 134L86 134L84 132z"/>
<path style="fill:#43b129; stroke:none;" d="M100 132L100 133L109 134L109 133L100 132M124.333 132.667L124.667 133.333L124.333 132.667z"/>
<path style="fill:#43b12b; stroke:none;" d="M174 133L174 134L177 134L174 133M193 132L193 134L195 134L195 132L193 132z"/>
<path style="fill:#43b129; stroke:none;" d="M162 133L163 134L162 133z"/>
<path style="fill:#43b12b; stroke:none;" d="M6 134L6 136L8 136L6 134M95 134L96 135L95 134M97 134C98.333 141.333 102.254 141.995 109 142L109 141L97 134M192 134L193 135L192 134z"/>
<path style="fill:#43b129; stroke:none;" d="M18 135L19 136L18 135z"/>
<path style="fill:#43b12b; stroke:none;" d="M136 135L137 136L136 135M165 135L166 136L165 135M175 135L175 136L179 137L175 135z"/>
<path style="fill:#43b129; stroke:none;" d="M23 136L27 142L22 142L23 139C18.9183 142.769 25.2204 144.491 28 146L31 145L28 153L28 154L28 155L30 155L32 145L33 145L36 147L36 144L34 145L34 143L23 136M130 136L130 138L132 138L130 136M172.333 136.667L172.667 137.333L172.333 136.667z"/>
<path style="fill:#43b12b; stroke:none;" d="M6 137L8 139L8 137L6 137z"/>
<path style="fill:#43b129; stroke:none;" d="M17 137L12 142L15 145L16 141L18 141L19 147L22 146L20 140L18 141L17 137M84 137L85 138L84 137z"/>
<path style="fill:#43b12b; stroke:none;" d="M140 137L139 140L140 140L140 137M143 137L143 151L144 151L143 137M165.667 137.333L166.333 137.667L165.667 137.333z"/>
<path style="fill:#43b129; stroke:none;" d="M29.3333 138.667L29.6667 139.333L29.3333 138.667M70 138C70 142.023 71.1895 147.797 68 147L66 152L72 149L70 138z"/>
<path style="fill:#43b12b; stroke:none;" d="M109 139L109 140L116 140L109 139M6 140L7 141L6 140M39 140L40 141L39 140M42 140L41 143L42 143L42 140M170 140L171 143L168 143L169 145L168 146L161 149L161 150L164 150L163 153L162 151L161 151L166 155L165 150L167 151L167 148L168 148L168 152L169 152L170 149L172 152L174 150L175 150L179 150L182 152L185 151L187 150L186 146L178 146L177 149L176 149C175.174 146.325 174.733 144.576 172 146L170 140M186 144L183 142L187 146L188 142L192 147L195 143L191 143L191 142L195 142L195 140C190.866 140.171 188.076 140.118 186 144M23.3333 142.667L23.6667 143.333L23.3333 142.667M27 142L28 143L27 142z"/>
<path style="fill:#43b129; stroke:none;" d="M37 142L38 143L37 142z"/>
<path style="fill:#43b12b; stroke:none;" d="M151 142C149.518 146.965 150.132 151.361 145 154L148 156L148 157L142 160L146 162L148 158L147 160L154 157L150 153L153 153L151 142z"/>
<path style="fill:#43b129; stroke:none;" d="M177 142L176 144L177 142M191 142L191 143L195 143L191 142z"/>
<path style="fill:#43b12b; stroke:none;" d="M99 143L99 145L110 145L110 143L99 143M7 144L6 147L9 145L7 144M31 144L32 145L31 144z"/>
<path style="fill:#43b129; stroke:none;" d="M38 144L38 146L40 144L38 144M170.333 144.667L170.667 145.333L170.333 144.667M41 145L42 146L41 145z"/>
<path style="fill:#43b12b; stroke:none;" d="M119 145L119 151L120 151L119 145M139 145L139 155L141 153L142 153L140 158L148 152L148 145L147 145L142 153L139 145z"/>
<path style="fill:#43b129; stroke:none;" d="M23 146L24 147L23 146M26 146L28 152L29 152L26 146z"/>
<path style="fill:#43b12b; stroke:none;" d="M50.6667 146.333L51.3333 146.667L50.6667 146.333M57 146L57 147L61 148L61 147L57 146z"/>
<path style="fill:#43b129; stroke:none;" d="M66.3333 146.667L66.6667 147.333L66.3333 146.667M81 146L81 148L91 148L91 146L81 146M168.333 146.667L168.667 147.333L168.333 146.667z"/>
<path style="fill:#43b12b; stroke:none;" d="M187 146L188 148L189 148L190 146L187 146M8 147L6 152L10 153L10 149L11 149L12 151L13 147L8 147z"/>
<path style="fill:#43b129; stroke:none;" d="M165 147L166 148L165 147M184.333 147.667L184.667 148.333L184.333 147.667z"/>
<path style="fill:#43b12b; stroke:none;" d="M189 150L193 149L193 150L191 151L195 155C194.685 151.566 192.564 145.078 189 150M6 148L7 149L6 148z"/>
<path style="fill:#43b129; stroke:none;" d="M19 148L22 151L22 150L19 148z"/>
<path style="fill:#43b12b; stroke:none;" d="M42 148L40 150L40 153L43 153L37 154L37 163L26 162L26 163L32 163L32 170L29 173L28 173C25.9683 170.912 24.6074 171.868 23 174L27 176L23 177L23 178L30 176L28 178L28 179L30 180L30 181L28 184L30 182L31 182C31.1953 183.806 31.7265 186.929 33 184L34 184L34 199L47 197L47 195L46 194L43 196L43 193L39 191L42 192L40 188L42 188L39 184L37 192L36 192L38 183L35 184L35 182L32 183L31 176L32 176L33 180L34 180L30 171L33 172L31 173L31 174L34 176L37 175L37 164L42 166L43 157L44 157L43 167L44 167L44 154L47 155L42 148z"/>
<path style="fill:#43b129; stroke:none;" d="M180.333 148.667L180.667 149.333L180.333 148.667M48 149L49 150L48 149M82 149L82 150L92 150L82 149M175 149L176 150L175 149M14 150L15 154L16 154L14 150z"/>
<path style="fill:#43b12b; stroke:none;" d="M70.3333 151.667L70.6667 152.333L70.3333 151.667z"/>
<path style="fill:#43b129; stroke:none;" d="M98 151L99 152L98 151M150 151L151 152L150 151z"/>
<path style="fill:#43b12b; stroke:none;" d="M185 151L170 154L167 153L166 157L171 157L172 154L177 155L177 156L174 155L173 159L172 159L172 157L171 157L170 162L169 162L169 156L162 155L168 160L167 164L172 164L172 160L173 160L174 160L173 163L178 165L177 159L180 160L179 163C181.801 160.227 181.223 158.553 180 155L183 156L182 158L184 158L184 162L182 161L183 164L184 164L185 160L186 160L189 167L190 167L191 164L192 164L191 167L192 168L195 165L193 161L188 163L188 154L187 154L185 157L184 154L187 154L187 151L185 151M7 152L9 161L10 161L11 158L14 160L12 154L9 156L8 156L7 152z"/>
<path style="fill:#43b129; stroke:none;" d="M44.6667 152.333L45.3333 152.667L44.6667 152.333z"/>
<path style="fill:#43b12b; stroke:none;" d="M61 152L62 153L61 152M188 152L190 162L191 152L188 152z"/>
<path style="fill:#43b129; stroke:none;" d="M17 154L15 155L15 156L17 154z"/>
<path style="fill:#43b12b; stroke:none;" d="M54 154L55 155L54 154M67 154L70 157L67 154M128.667 154.333L129.333 154.667L128.667 154.333z"/>
<path style="fill:#43b129; stroke:none;" d="M146 154L147 155L146 154M149 154L149 156L151 156L149 154M21 156L22 157L21 156M25 156L22 159L22 160L25 161L25 156M29 156L30 157L29 156z"/>
<path style="fill:#43b12b; stroke:none;" d="M181 156L182 157L181 156M6 157L6 161L7 161L6 157z"/>
<path style="fill:#43b129; stroke:none;" d="M134 157L135 158L134 157M174 157L175 160L178 158L178 157L174 157z"/>
<path style="fill:#43b12b; stroke:none;" d="M16 158L15 163L16 163L17 160L20 161L20 158L16 158M62 158L62 160L64 158L62 158M153 158L149 163L155 158L153 158z"/>
<path style="fill:#43b129; stroke:none;" d="M190 158L189 160L190 158M47 159L48 160L47 159z"/>
<path style="fill:#43b12b; stroke:none;" d="M51 159L52 160L51 159M102 159C104.844 163.636 109.018 162.999 114 163C110.605 158.924 107.045 159.004 102 159M194 159L195 160L194 159M98 160L99 161L98 160z"/>
<path style="fill:#43b129; stroke:none;" d="M162 160L164 162L162 160z"/>
<path style="fill:#43b12b; stroke:none;" d="M178 160L179 161L178 160M8 162L7 163L6 163C7.20743 166.618 9.35988 167.426 13 168L11 171C16.2493 167.602 14.894 160.546 8 162z"/>
<path style="fill:#43b129; stroke:none;" d="M48 161L48 168L49 168L48 161z"/>
<path style="fill:#43b12b; stroke:none;" d="M153 165L149 165L149 166L154 164L155 164L158 169L151 167L151 168L159 170L157 173L159 171L163 171L163 174L161 173L161 174L163 175L165 166L162 171L161 171L161 165L164 165L164 164L160 163L158 166L157 165L158 162C154.92 161.717 153.856 161.97 153 165M194 161L194 164L195 164L194 161z"/>
<path style="fill:#43b129; stroke:none;" d="M11 162L10 166L11 162z"/>
<path style="fill:#43b12b; stroke:none;" d="M56 162L56 170L57 170L56 162M139.667 162.333L140.333 162.667L139.667 162.333M11.3333 163.667L11.6667 164.333L11.3333 163.667z"/>
<path style="fill:#43b129; stroke:none;" d="M23.3333 163.667L23.6667 164.333L23.3333 163.667M34 163L34 172L35 172L34 163z"/>
<path style="fill:#43b12b; stroke:none;" d="M81 164L81 166L88 168L91 163L81 164M102.333 163.667L102.667 164.333L102.333 163.667z"/>
<path style="fill:#43b129; stroke:none;" d="M125 163L125 170L126 170L125 163z"/>
<path style="fill:#43b12b; stroke:none;" d="M112 164L112 174L116 174L116 164L115 164L115 173L114 173L112 164M137 164L137 171L138 171L139 164L137 164z"/>
<path style="fill:#43b129; stroke:none;" d="M172.333 165.667L172.667 166.333L172.333 165.667z"/>
<path style="fill:#43b12b; stroke:none;" d="M15 166L15 169L16 169L15 166M91.6667 166.333L92.3333 166.667L91.6667 166.333z"/>
<path style="fill:#43b129; stroke:none;" d="M97.6667 166.333L98.3333 166.667L97.6667 166.333z"/>
<path style="fill:#43b12b; stroke:none;" d="M106 169L109 171L110 171L110 166L106 169M6 167L7 172L8 172L8 167L6 167M26 167L25 171L29 170L29 169L26 167M148 167L151 176L150 167L148 167z"/>
<path style="fill:#43b129; stroke:none;" d="M158 167L160 169L158 167z"/>
<path style="fill:#43b12b; stroke:none;" d="M162 167L163 168L162 167z"/>
<path style="fill:#43b129; stroke:none;" d="M46 168L44 176L47 184L44 183L47 188C48.4057 185.867 50.3136 181.556 47 181L51 179L50 169L49 169L49 177L47 177L46 168z"/>
<path style="fill:#43b12b; stroke:none;" d="M167 168L168 169L167 168z"/>
<path style="fill:#43b129; stroke:none;" d="M174 168L174 170L176 168L174 168z"/>
<path style="fill:#43b12b; stroke:none;" d="M193 168L192 177L194 176L194 179L195 179L195 168L193 168M8 169L9 170L8 169z"/>
<path style="fill:#43b129; stroke:none;" d="M69 169L69 176L70 176L69 169M181 169L181 175L177 174L180 170L176 170L176 171L178 172L174 173L176 177L172 177L173 181L174 181L175 178L176 178L177 182L184 178L184 177L181 177L187 169L185 171L184 171L181 169z"/>
<path style="fill:#43b12b; stroke:none;" d="M54 170L54 177L55 177L54 170M60 170L60 178L61 178L60 170z"/>
<path style="fill:#43b129; stroke:none;" d="M188 170L186 172L189 176L187 174L188 170z"/>
<path style="fill:#43b12b; stroke:none;" d="M154.667 171.333L155.333 171.667L154.667 171.333z"/>
<path style="fill:#43b129; stroke:none;" d="M172 171L172 173L174 171L172 171z"/>
<path style="fill:#43b12b; stroke:none;" d="M91 172L92 173L91 172M97 172L96 174L98 174L97 172M151 172L154 177L155 177L156 173L151 172z"/>
<path style="fill:#43b129; stroke:none;" d="M169 172L170 173L169 172z"/>
<path style="fill:#43b12b; stroke:none;" d="M182 172L183 173L182 172M6 173L9 177L6 173z"/>
<path style="fill:#43b129; stroke:none;" d="M14 173L12 182L13 177L14 177L11 185L16 179L21 181L20 176L17 177L14 173M28 174L29 175L28 174z"/>
<path style="fill:#43b12b; stroke:none;" d="M85 174L86 175L85 174z"/>
<path style="fill:#43b129; stroke:none;" d="M154.333 174.667L154.667 175.333L154.333 174.667z"/>
<path style="fill:#43b12b; stroke:none;" d="M165.667 174.333L166.333 174.667L165.667 174.333M176 174L177 175L176 174M191 174L192 175L191 174M79 175L76 179L81 179L81 178L81 177L79 178L79 175M14 176L15 179L16 179L16 176L14 176M86 176L88 179L89 176L86 176z"/>
<path style="fill:#43b129; stroke:none;" d="M94 176L94 179L95 179L94 176z"/>
<path style="fill:#43b12b; stroke:none;" d="M105 176L106 179L107 179L107 176L105 176z"/>
<path style="fill:#43b129; stroke:none;" d="M143 177L146 180L147 177L143 177z"/>
<path style="fill:#43b12b; stroke:none;" d="M177 176L179 179L180 176L177 176z"/>
<path style="fill:#43b129; stroke:none;" d="M185 176L185 179L186 179L185 176z"/>
<path style="fill:#43b12b; stroke:none;" d="M46 177L47 178L46 177z"/>
<path style="fill:#43b129; stroke:none;" d="M71.3333 177.667L71.6667 178.333L71.3333 177.667z"/>
<path style="fill:#43b12b; stroke:none;" d="M97 177L98 178L97 177M137 177L138 178L137 177M151 177L152 178L151 177z"/>
<path style="fill:#43b129; stroke:none;" d="M162.333 177.667L162.667 178.333L162.333 177.667M187.333 177.667L187.667 178.333L187.333 177.667z"/>
<path style="fill:#43b12b; stroke:none;" d="M7 178L8 181L7 178M18 178L19 179L18 178z"/>
<path style="fill:#43b129; stroke:none;" d="M36 178L37 179L36 178z"/>
<path style="fill:#43b12b; stroke:none;" d="M54.6667 178.333L55.3333 178.667L54.6667 178.333M57.6667 178.333L58.3333 178.667L57.6667 178.333M109 178L110 179L109 178M119 178L120 179L119 178z"/>
<path style="fill:#43b129; stroke:none;" d="M129 178L130 179L129 178z"/>
<path style="fill:#43b12b; stroke:none;" d="M145 178L146 179L145 178M24 179L25 180L24 179M45 179L46 180L45 179M115 179L116 180L115 179M122 179L126 198L123 196L119 198L138 197L138 195L137 194L134 196L134 193L130 191L133 192L131 188L133 188L130 184L128 192L127 192L129 183L126 184L126 182L123 183L122 179M124 179L125 180L124 179M136 179L137 180L136 179M32 180L34 182L32 180z"/>
<path style="fill:#43b129; stroke:none;" d="M50 180L50 182L53 182L53 180L50 180M93 180L92 183L93 184L94 182L99 183L99 187L100 187L99 181L93 180M141 180L141 182L143 182L143 180L141 180M184 180L185 181L184 180z"/>
<path style="fill:#43b12b; stroke:none;" d="M193 180L193 182L195 182L193 180M124 181L125 182L124 181z"/>
<path style="fill:#43b129; stroke:none;" d="M18.3333 182.667L18.6667 183.333L18.3333 182.667M20 182L22 184L20 182z"/>
<path style="fill:#43b12b; stroke:none;" d="M60 182L59 191L61 192L62 190L65 194L56 192L55 192L58 195L57 198L64 199L64 198L59 198L66 196L67 191L64 191L64 190L70 189L72 196L73 196L74 193L71 192L72 189L65 186L73 184L67 186L66 183C63.553 184.568 62.7204 185.309 64 188L60 182M69 182L70 183L69 182z"/>
<path style="fill:#43b129; stroke:none;" d="M109.333 182.667L109.667 183.333L109.333 182.667M111 182L113 184L111 182M143 183L142 188L146 188L144 185L147 186L148 183L143 183z"/>
<path style="fill:#43b12b; stroke:none;" d="M151 182L150 191L152 192L153 190L156 194L146 193L148 196L148 197L146 199L155 199L155 198L150 198L157 196L158 191L155 191L155 190L161 189L163 196L164 196L165 193L162 192L163 189L156 186L164 184L158 186L157 183C154.553 184.568 153.72 185.309 155 188L151 182M160 182L161 183L160 182M185 182L182 184L187 192L187 196L182 192L183 188L180 189C180.309 191.74 180.036 194.069 183 194L181 196L181 197L183 199C189.343 198.978 190.989 197.562 195 193L195 192L192 191L195 189L195 183L194 183L191 187L193 182L188 185L185 182M6 183L6 186L7 186L8 183L6 183M47 184L48 185L47 184z"/>
<path style="fill:#43b129; stroke:none;" d="M50.3333 184.667L50.6667 185.333L50.3333 184.667z"/>
<path style="fill:#43b12b; stroke:none;" d="M119 185L123 187L124 190L123 191L113 189L112 189L111 194L110 194L109 187L108 187L108 196C112.221 195.84 118.737 198.704 120 193L126 195L126 194L123 194L122 184L119 185M138 184L139 185L138 184z"/>
<path style="fill:#43b129; stroke:none;" d="M141.333 184.667L141.667 185.333L141.333 184.667z"/>
<path style="fill:#43b12b; stroke:none;" d="M25 185L23 188L23 189L27 189L25 185M28 185L29 189L22 189L21 189L20 194L19 194L18 187L17 187L17 196L32 194L32 196L35 195L35 194L32 194L30 190L28 192L30 187L33 188L33 187L28 185z"/>
<path style="fill:#43b129; stroke:none;" d="M94 185L95 186L94 185z"/>
<path style="fill:#43b12b; stroke:none;" d="M116 185L114 188L114 189L118 189L116 185M181 185L178 187L178 188L181 185z"/>
<path style="fill:#43b129; stroke:none;" d="M185 185L186 186L185 185M8 186L9 187L8 186z"/>
<path style="fill:#43b12b; stroke:none;" d="M37 186L38 187L37 186z"/>
<path style="fill:#43b129; stroke:none;" d="M51 187L51 188L54 188L54 187L51 187z"/>
<path style="fill:#43b12b; stroke:none;" d="M128 186L129 187L128 186z"/>
<path style="fill:#43b129; stroke:none;" d="M187.667 186.333L188.333 186.667L187.667 186.333z"/>
<path style="fill:#43b12b; stroke:none;" d="M76 188L79 191L78 194L81 191L82 191L82 199L87 197L88 197L91 199L89 193L83 189L87 189L87 188L79 189L76 188M119 187L120 188L119 187M167 188L170 191L169 194L172 191L173 191L173 199L178 197L179 197L182 199L180 193L174 189L178 189L178 188L170 189L167 188z"/>
<path style="fill:#43b129; stroke:none;" d="M194 187L195 188L194 187z"/>
<path style="fill:#43b12b; stroke:none;" d="M6 188L8 191L6 188M91 188C89.1053 190.252 88.2296 194.087 92 194L90 196L90 197L92 199L98 196L91 192L91 188z"/>
<path style="fill:#43b129; stroke:none;" d="M147 188L148 189L147 188M186 191L187 189L188 189L190 190L189 193L190 193L194 189C191.035 187.665 186.456 187.248 186 191z"/>
<path style="fill:#43b12b; stroke:none;" d="M10 189L11 195L11 196L9 199L10 199L12 197L19 199L19 198L13 197L14 195L10 194L10 189M33 189L34 190L33 189M42 189L43 190L42 189z"/>
<path style="fill:#43b129; stroke:none;" d="M94 189L95 190L94 189z"/>
<path style="fill:#43b12b; stroke:none;" d="M97 189L98 193L99 193L98 191L99 191L102 192L97 189M133 189L134 190L133 189z"/>
<path style="fill:#43b129; stroke:none;" d="M194 189L192 192C194.251 191.527 195.118 191.14 194 189z"/>
<path style="fill:#43b12b; stroke:none;" d="M14 190L12 193L14 190z"/>
<path style="fill:#43b129; stroke:none;" d="M18 190L19 191L18 190M46 190L47 191L46 190z"/>
<path style="fill:#43b12b; stroke:none;" d="M74 190L75 191L74 190M84 190L84 191L88 192L84 190M105 190L103 193L105 190z"/>
<path style="fill:#43b129; stroke:none;" d="M109 190L110 191L109 190M137 190L138 191L137 190z"/>
<path style="fill:#43b12b; stroke:none;" d="M165 190L166 191L165 190M175 190L175 191L179 192L175 190z"/>
<path style="fill:#43b129; stroke:none;" d="M23 191L21 194L21 195L26 194L25 196L28 195L23 191z"/>
<path style="fill:#43b12b; stroke:none;" d="M56 191L57 192L56 191M58 191L58 193L60 193L58 191M72 191L73 192L72 191z"/>
<path style="fill:#43b129; stroke:none;" d="M114 191L112 194L112 195L117 194L116 196L119 195L114 191M119 191L119 192L122 192L119 191z"/>
<path style="fill:#43b12b; stroke:none;" d="M147.333 191.667L147.667 192.333L147.333 191.667M149 191L149 193L151 193L149 191M163 191L164 192L163 191M6 192L9 196L6 192z"/>
<path style="fill:#43b129; stroke:none;" d="M17 192L18 193L17 192z"/>
<path style="fill:#43b12b; stroke:none;" d="M74.6667 192.333L75.3333 192.667L74.6667 192.333z"/>
<path style="fill:#43b129; stroke:none;" d="M108 192L109 193L108 192z"/>
<path style="fill:#43b12b; stroke:none;" d="M139 193L139 194L142 193L140 197L145 194L139 193M165.667 192.333L166.333 192.667L165.667 192.333z"/>
<path style="fill:#43b129; stroke:none;" d="M29 193L30 194L29 193M37.3333 193.667L37.6667 194.333L37.3333 193.667z"/>
<path style="fill:#43b12b; stroke:none;" d="M67 193L69 196L67 193z"/>
<path style="fill:#43b129; stroke:none;" d="M83 193L85 195L83 193z"/>
<path style="fill:#43b12b; stroke:none;" d="M94 193L94 194L97 195L97 194L97 193L94 193M100 193L98 194L100 199L101 199L103 197L110 199L110 198L104 197L105 195L100 193z"/>
<path style="fill:#43b129; stroke:none;" d="M128.333 193.667L128.667 194.333L128.333 193.667z"/>
<path style="fill:#43b12b; stroke:none;" d="M158 193L160 196L158 193z"/>
<path style="fill:#43b129; stroke:none;" d="M174 193L176 195L174 193z"/>
<path style="fill:#43b12b; stroke:none;" d="M185 193L186 194L185 193z"/>
<path style="fill:#43b129; stroke:none;" d="M193 193L191 199L195 193L193 193z"/>
<path style="fill:#43b12b; stroke:none;" d="M14 194L16 196L14 194M76 196L73 198L78 199L78 194L76 196M79 194L80 198L81 198L79 194M105 194L107 196L105 194M167 196L164 198L167 197L169 199L169 194L167 196M170 194L171 195L170 194z"/>
<path style="fill:#43b129; stroke:none;" d="M188 194L187 198L191 197L188 194z"/>
<path style="fill:#43b12b; stroke:none;" d="M52 195L53 199L56 199L56 198L56 196L52 195M70 195L66 196L65 199L73 199L70 195z"/>
<path style="fill:#43b129; stroke:none;" d="M101 195L102 196L101 195z"/>
<path style="fill:#43b12b; stroke:none;" d="M143 195L142 199L145 199L147 196L143 195M161 195L157 196L156 199L164 199L161 195M171 195L171 199L172 199L171 195M194 195L195 196L194 195M6 196L6 199L7 199L6 196M19 196L20 197L19 196M28 197L28 198L33 199L28 197z"/>
<path style="fill:#43b129; stroke:none;" d="M37 196L37 197L42 197L42 196L37 196z"/>
<path style="fill:#43b12b; stroke:none;" d="M62 196L62 197L65 198L62 196z"/>
<path style="fill:#43b129; stroke:none;" d="M83 196L83 197L87 197L87 196L83 196z"/>
<path style="fill:#43b12b; stroke:none;" d="M110 196L111 197L110 196z"/>
<path style="fill:#43b129; stroke:none;" d="M128 196L128 197L133 197L133 196L128 196z"/>
<path style="fill:#43b12b; stroke:none;" d="M153 196L153 197L156 198L153 196z"/>
<path style="fill:#43b129; stroke:none;" d="M174 196L174 197L178 197L178 196L174 196M10 197L10 199L12 197L10 197z"/>
<path style="fill:#43b12b; stroke:none;" d="M24.3333 197.667L24.6667 198.333L24.3333 197.667M46 198L46 199L50 199L46 198M51.3333 197.667L51.6667 198.333L51.3333 197.667z"/>
<path style="fill:#43b129; stroke:none;" d="M87 197L85 198L85 199L87 197M101 197L101 199L103 197L101 197z"/>
<path style="fill:#43b12b; stroke:none;" d="M115.333 197.667L115.667 198.333L115.333 197.667M137 198L137 199L141 199L137 198z"/>
<path style="fill:#43b129; stroke:none;" d="M178 197L176 198L176 199L178 197z"/>
<path style="fill:#43b12b; stroke:none;" d="M194.333 197.667L194.667 198.333L194.333 197.667M21 198L22 199L21 198M26 198L27 199L26 198z"/>
<path style="fill:#43b129; stroke:none;" d="M36.6667 198.333L37.3333 198.667L36.6667 198.333z"/>
<path style="fill:#43b12b; stroke:none;" d="M44 198L45 199L44 198M98 198L99 199L98 198M112 198L113 199L112 198M117 198L118 199L117 198z"/>
<path style="fill:#43b129; stroke:none;" d="M127.667 198.333L128.333 198.667L127.667 198.333z"/>
<path style="fill:#43b12b; stroke:none;" d="M135 198L136 199L135 198z"/>
<path style="fill:#43b129; stroke:none;" d="M143 198L144 199L143 198M148 198L149 199L148 198z"/>
</svg>
